<?xml version="1.0" encoding="utf-8"?>
<!-- Generator: Adobe Illustrator 19.2.1, SVG Export Plug-In . SVG Version: 6.00 Build 0)  -->
<svg version="1.1" id="图层_1" xmlns="http://www.w3.org/2000/svg" xmlns:xlink="http://www.w3.org/1999/xlink" x="0px" y="0px"
	 viewBox="0 0 400 80" style="enable-background:new 0 0 400 80;" xml:space="preserve">
<style type="text/css">
	.st0{fill:#2E9DFF;}
	.st1{fill-rule:evenodd;clip-rule:evenodd;fill:#F5AB1D;}
</style>
<g>
	<path class="st0" d="M104.9,48.5h11.4V32.2h-9.9v-4H131v4h-10.1v16.2h11.5v4h-27.6V48.5z"/>
	<path class="st0" d="M141.7,26.6h4.1v22.3h3.6V26.6h4.1v15.3c1.5-3.1,3-6.6,4.5-10.6l3.7,1.6c-1.4,3.6-3.2,7.5-5.2,11.7l-3-1.4v5.7
		h8.2v3.9h-28v-3.9h8v-5.6l-3.2,1.4c-1.5-4.4-3.1-8.4-4.6-12.1l3.4-1.6c1.6,3.7,3.1,7.2,4.4,10.6V26.6z"/>
	<path class="st0" d="M165.9,54V41.4c-0.3,0.1-0.6,0.3-1,0.4c-0.7-1-1.4-1.9-2.1-2.6c2.9-1.1,4.7-2.4,5.3-3.7H163v-2.8h1.8
		c-0.6-0.9-1.1-1.7-1.7-2.4c1-1,2-2.4,3.1-4.4h3.7c-0.3,0.7-0.6,1.4-1,2h7.9v2.8h-4c0,0.7-0.1,1.3-0.2,2h5v2.8h-4.4l4,2.7l-1.8,2.1
		h12.1V54h-3.8v-1.2h-14.1V54H165.9z M165.4,32.7h3.6c0.1-0.6,0.2-1.2,0.2-2h-2.1C166.6,31.5,166,32.1,165.4,32.7z M168,40.3h6.5
		c-1.2-1.1-2.3-2.1-3.3-3C170.5,38.4,169.4,39.4,168,40.3z M183.8,43.2h-14.1v2h14.1V43.2z M169.7,49.8h14.1V48h-14.1V49.8z
		 M178.1,28.1h11.3v10.6h-11.3V28.1z M185.9,35.7v-4.6h-4.3v4.6H185.9z"/>
	<path class="st0" d="M203.2,28.5c1.4,1.9,2.8,3.9,4.2,6.1c-1.2,0.7-2.2,1.3-3,1.7l-0.8-1.4l-10.9,0.8l-1-3.2
		c1.3-0.7,3.1-2.9,5.6-6.6l3.6,1.4l-4.1,5l5.2-0.2c-0.5-0.7-0.9-1.5-1.4-2.2L203.2,28.5z M196.7,53.8h-3.5V36.7h12.1V50
		c0,1.1-0.2,2-0.6,2.6c-0.4,0.6-1,1-1.8,1.1c-0.8,0.1-2.2,0.1-4,0.1c-0.3-1.1-0.6-2.2-0.9-3.4c0.9,0.1,1.7,0.1,2.2,0.1
		c0.7,0,1.2-0.1,1.4-0.4c0.2-0.3,0.3-0.6,0.3-0.9v-0.7h-5V53.8z M201.7,39.8h-5v1.6h5V39.8z M196.7,45.7h5v-1.6h-5V45.7z
		 M216.2,32.5c1.4,0.7,2.6,1.1,3.5,1.4c-0.3,1.1-0.5,2.1-0.8,3c-0.3,0.9-0.7,1.5-1.4,1.9c-0.7,0.4-1.6,0.6-2.7,0.6h-2.9
		c-2.9,0-4.4-1.4-4.4-4.2v-8.9h3.6v4.3c2.3-1.1,4.3-2.1,5.9-3l2.5,2.9c-2,0.9-4.8,2.1-8.4,3.4v0.9c0,1.1,0.6,1.6,1.9,1.6h0.9
		c1,0,1.6-0.3,1.8-0.9C215.8,34.8,216,33.8,216.2,32.5z M216.3,45.9c1.2,0.5,2.3,0.9,3.5,1.4c-0.4,2.2-0.7,3.6-1,4.2
		s-0.8,1.1-1.5,1.4c-0.7,0.3-1.5,0.5-2.5,0.5h-3c-2.9,0-4.4-1.4-4.4-4.3v-9h3.6v3.5c2.1-1,4-2.1,5.9-3.2l2.5,3
		c-2.6,1.2-5.4,2.5-8.4,3.7v1.4c0,1.2,0.5,1.7,1.6,1.7h1.2c0.8,0,1.4-0.2,1.7-0.5C215.8,49.4,216,48.1,216.3,45.9z"/>
	<path class="st0" d="M225.2,52.2h-3.4V41.1h5.8V39h-6.9v-3.2h6.9v-2.5h-3c-0.2,0.8-0.5,1.6-0.8,2.3c-0.8-0.4-1.8-0.7-2.9-1.2
		c0.8-2.3,1.4-4.7,1.9-7.3l3.1,0.6l-0.5,2.3h2.2V26h3.7V30h5.7v3.2h-5.7v2.5h6.5V39h-6.5v2.2h5.8v7.7c0,1.1-0.2,1.9-0.7,2.5
		c-0.4,0.6-1.1,0.9-2.1,0.9c-1,0-1.7,0-2.1,0c-0.2-1-0.5-2.2-0.8-3.5c0.5,0.1,1,0.1,1.4,0.1c0.6,0,0.8-0.3,0.8-0.9v-3.5h-2.4v9.7
		h-3.7v-9.7h-2.4V52.2z M238.8,28.3h3.5v19h-3.5V28.3z M243.8,26.1h3.6v23.4c0,1.4-0.3,2.5-1,3.2s-1.6,1.1-2.8,1.1
		c-1.2,0-2.6,0.1-4.1,0.1c-0.2-1.1-0.4-2.4-0.7-4c1.5,0.1,2.7,0.1,3.5,0.1c1,0,1.5-0.6,1.5-1.8V26.1z"/>
	<path class="st0" d="M277.7,49.7l-1.1,3.7c-7.3,0.1-12.4,0-15-0.1c-2.7-0.1-4.9-1-6.7-2.6c-1.3,1.3-2.4,2.4-3.3,3.4l-1.7-4.2
		l2.9-2.5v-7.2h-2.6v-3.6h6.3v11c1.5,1.6,3.7,2.4,6.8,2.4C269.5,49.9,274.3,49.8,277.7,49.7z M253.8,26.5c1.4,1.9,2.7,3.6,3.8,5.2
		l-3.3,2.2c-1.1-2-2.3-3.8-3.5-5.6L253.8,26.5z M257.7,35.1h8.6v-2.3h-4c-0.3,0.8-0.6,1.5-1,2.2c-0.9-0.5-2-1-3.2-1.5
		c1-1.9,1.9-4.3,2.7-6.9l3.3,1c-0.2,0.7-0.5,1.4-0.7,2h2.8v-3.5h3.8v3.5h6.1v3.2h-6.1v2.3h7.2v3.2h-19.6V35.1z M259.9,39.6h15.7v8.6
		h-15.7V39.6z M271.9,42.7h-8.3V45h8.3V42.7z"/>
	<path class="st0" d="M279.2,36.4h27.2v3.9h-13.2c-1.4,2-3.6,4.7-6.6,8c4,0,7.8-0.1,11.5-0.3l-3.8-4.7l3.4-2.1
		c3.7,4.2,6.6,7.7,8.7,10.5l-3.7,2.4c-0.4-0.6-0.9-1.4-1.6-2.3c-11.1,0.4-17.5,0.8-19.2,1.2l-1.8-3.8c2.9-2.4,5.5-5.4,7.8-8.9h-8.7
		V36.4z M281.8,27.6h22v3.9h-22V27.6z"/>
</g>
<g>
	<g>
		<path class="st1" d="M71.1,42.4H33.5c-4.4,0-8.1,3.7-8.1,8.1s3.7,8.1,8.1,8.1h37.6c4.4,0,8.1-3.7,8.1-8.1S75.5,42.4,71.1,42.4
			L71.1,42.4z M71.1,52.8H54.6c0.3-0.7,0.3-1.7,0.3-2.7s0-1.7-0.3-2.7h16.5c1.3,0,2.7,1.3,2.7,2.7C73.8,51.8,72.4,52.8,71.1,52.8
			L71.1,52.8z M44.2,37c0-4.4,3.7-8.1,8.1-8.1s8.1,3.7,8.1,8.1c0,1-0.3,1.7-0.7,2.7h8.7v-5.4h-3c-0.3-1.7-1-3.4-2-4.7l2-2l-3.7-3.7
			l-2,2c-1.3-1-3-1.7-4.7-2v-3h-5.4v3c-1.7,0.3-3.4,1-4.7,2l-2-2l-3.7,3.7l2,2c-1,1.3-1.7,3-2,4.7h-3v5.4h8.7
			C44.6,39,44.2,38,44.2,37L44.2,37z M49.6,37c0,1.3,1.3,2.7,2.7,2.7S55,38.3,55,37s-1.3-2.7-2.7-2.7S49.6,35.7,49.6,37L49.6,37z"/>
	</g>
	<g>
		<path class="st0" d="M73.8,68.3h-43c-9.9,0-17.9-8-17.9-17.9c0-8.6,6.1-15.9,14.4-17.5c2-12.2,12.5-21.2,25-21.2s23,9,25,21.2
			c8.3,1.6,14.4,8.9,14.4,17.5C91.7,60.3,83.6,68.3,73.8,68.3z M52.3,15.2c-11.2,0-20.5,8.4-21.7,19.4L30.5,36l-1.4,0.2
			c-7.2,0.9-12.7,7-12.7,14.3c0,7.9,6.4,14.4,14.4,14.4h43c7.9,0,14.4-6.4,14.4-14.4c0-7.3-5.4-13.4-12.7-14.3L74.1,36L74,34.6
			C72.8,23.5,63.5,15.2,52.3,15.2z"/>
	</g>
</g>
</svg>
