<?xml version="1.0" encoding="utf-8"?>
<!-- Generator: Adobe Illustrator 19.2.1, SVG Export Plug-In . SVG Version: 6.00 Build 0)  -->
<svg version="1.1" id="图层_1" xmlns="http://www.w3.org/2000/svg" xmlns:xlink="http://www.w3.org/1999/xlink" x="0px" y="0px"
	 viewBox="0 0 400 80" style="enable-background:new 0 0 400 80;" xml:space="preserve">
<style type="text/css">
	.st0{fill:#C5181F;}
	.st1{fill:#103676;}
</style>
<g>
	<g>
		<g>
			<polygon class="st0" points="50.2,11 30.8,43.9 40,43.9 34.9,60.5 36.7,60.5 47.8,42.2 39.1,42.2 			"/>
			<polygon class="st1" points="26.9,24 35.4,24 26.9,60.5 18.5,60.5 			"/>
			<path class="st1" d="M71,40c-0.5-4.6-2.8-8.3-6.5-11c-4-2.9-8.7-4.2-13.6-4.5c-0.1,0-0.3,0-0.4,0l0,0l0,0c-0.1,0-0.3,0-0.4,0
				h-0.6l-0.3,0.9c0,0.1-0.1,0.3-0.1,0.4c-0.9,2.6-1.9,5.2-2.8,7.8c0.1,0,1.3,0,1.8,0c3.1,0,6.1,0.3,9.1,1.5c4.3,1.9,6.1,5.5,5,10.1
				c-1.4,5.2-4.6,9.1-9.5,11.5c-4.7,2.4-9.8,3.2-15.1,3.1c-0.1,0-0.1,0-0.4,0l-0.5,0.8c0.1,0,0.3,0,0.4,0c3.1,0,6.3,0,9.3,0
				c3.3,0,6.6-0.3,9.8-1.3c4.3-1.3,8.1-3.5,11-7C70.1,48.6,71.5,44.5,71,40z"/>
		</g>
	</g>
	<g>
		<g>
			<path class="st1" d="M82.8,23.8h10.1V23h3.8v0.8h10.1v3.1H86.4v18.7c0.1,2.3-0.8,3.5-2.4,3.3h-2v-2.9h0.4c0.5,0,0.6-0.3,0.5-0.6
				V23.8z M87.2,28.3h7.7v-0.8h3.8v0.8h7.8v4h0.5V35h-0.5v1.3c0.1,1.9-0.9,2.9-3.1,2.8h-5V46c0.1,2.2-0.8,3.2-2.6,2.9h-2.3v-2.8h0.6
				c0.5,0,0.6-0.3,0.5-0.6v-6.3h-7.7v-2.8h7.7v-1.3h-7.5v-2.8h7.5v-1h-7.7v-3.1H87.2z M92.3,47.6c-0.4,0.9-1.3,1.3-2.8,1.3h-2.3
				v-2.7h1c0.5,0,0.9-0.1,1-0.5l0.5-1h4L92.3,47.6z M90.8,43.6c-0.9,0.1-1.5-0.3-2-1.3L87.6,40h3.6l0.1,0.4l0.1,0.1
				c0.1,0.1,0.4,0.1,0.5,0.1h1.8v3.1h-2.9V43.6z M98.6,31.2v1h4.2v-1H98.6z M102.8,35.5V35h-4.1v1.3h3.5
				C102.5,36.2,102.8,35.9,102.8,35.5z M99.6,43.5v-2.9h2.6c0.4,0,0.6-0.1,0.6-0.4l0.1-0.3h3.7l-0.5,1.7c-0.3,1.4-1.2,1.9-2.9,1.8
				h-3.6V43.5z M104.1,48.7c-1.9,0.1-2.9-0.4-3.2-1.4l-1-2.8h3.8l0.5,0.8c0.3,0.5,0.5,0.8,0.8,0.6h1.9v2.8H104.1z"/>
			<path class="st1" d="M115.2,35h-1.9v-3.7h6.1v12c0.6,1.2,1.9,1.9,3.8,2h15.6v3.2h-16.2c-1.3,0-2.4-0.4-3.6-1.3
				c-0.3-0.1-0.4-0.3-0.5-0.3l-0.1,0.1c-0.8,0.9-1.9,1.4-3.6,1.4h-1.5v-3.2h1c0.6,0,0.9-0.4,0.9-1V35z M119.5,28.3h-5.1v-4.7h5.1
				V28.3z M120.8,29.4v-4h6.5l0.5-2.3h4.2l-0.5,2.3h7.4v4h-8.1l-0.4,1.3h2.3l2.9,8.6c0.1,0.5,0.4,0.6,0.8,0.6h2.3v3.3h-4.3
				c-1.3,0.1-2-0.5-2.4-1.9l-2.3-7.4l-2.3,7.5c-0.4,1.3-1.4,1.9-2.9,1.8h-3.8V40h1.9c0.5,0,0.8-0.1,0.8-0.5l3.2-10.1
				C126.6,29.4,120.8,29.4,120.8,29.4z"/>
			<path class="st1" d="M145.1,24.4h4.6v-1h4.1v1h4.9v3.3h-13.6V24.4z M145.1,34.3v-3.2h0.8l-0.6-2.6h4.5l0.8,2.6h2.3l1.4-2.6h4.2
				l-1,2.6h1.2v3.2H145.1z M153.8,49.2h-3.7v-9.6h-5v-3.2h5V35h3.7v1.4h4.7v3.2h-4.7V49.2z M149.4,40.4l-0.3,7
				c-0.1,1.2-0.9,1.7-2.4,1.7h-1.4v-2.8c0.5,0.1,0.8-0.1,0.6-0.8l0.1-5.1C146.1,40.4,149.4,40.4,149.4,40.4z M159.7,24.6h6.9
				c0.6,0.1,0.9-0.3,0.8-1.2h3.5v2c0.1,1.7-0.6,2.6-2.3,2.3h-5.1V30h7.5v3.2H170v15.9h-4.1v-16h-2.6v13.3c0,1.9-1,2.9-3.2,2.8H157
				c-1.5-0.1-2.4-0.9-2.6-2.3l-0.1-6.5h3.2l0.1,4.2c0.1,0.9,0.4,1.4,0.9,1.4h0.5c0.5,0.1,0.6-0.1,0.6-0.8
				C159.7,45.3,159.7,24.6,159.7,24.6z"/>
			<path class="st1" d="M176.9,45.9h0.6c0.4,0.1,0.5-0.1,0.5-0.6V31.7h11.8v14.7c0.3,1.9-0.6,2.7-2.6,2.4h-3.7v-3.1h1.5
				c0.5,0,0.6-0.1,0.5-0.5v-0.5H182v1.4c0.1,1.9-0.8,2.8-2.6,2.7h-2.6L176.9,45.9L176.9,45.9z M177.1,30.6v-3.5l4.1-4.2h5.1
				l-3.7,4.5h2.3c0.5,0.1,0.8-0.3,0.6-0.9v-1.4h4.1V28c0.3,1.9-0.9,2.8-3.7,2.6H177.1z M182.2,36.7h3.6V35h-3.6V36.7z M185.8,41.6
				v-1.8h-3.6v1.8H185.8z M190.7,36.7h4.1v2.2h3.2c0.6,0.1,0.9-0.1,0.8-0.8v-1.4h4V40c0.3,1.5-0.5,2.2-2.6,1.9H195v2.9
				c-0.1,0.8,0.3,1,1.3,1h6.5v2.9h-8.8c-2.2,0.1-3.2-0.6-2.9-2.3v-9.8H190.7z M190.7,22.9h4.1v2.2h3.2c0.6,0.1,0.9-0.1,0.8-0.8v-1.4
				h3.8v3.6c0.3,1.5-0.5,2.2-2.3,1.9H195v2.9c-0.1,0.8,0.4,1,1.3,1h6.6v3.2h-8.9c-2,0.1-3.1-0.6-2.9-2.3V22.9H190.7z"/>
			<path class="st1" d="M210.8,39.1c-0.8,0.1-1.3-0.4-1.4-1.4l-1.2-5.4h3.6l0.6,2.9c0.1,0.6,0.4,0.9,0.8,0.8h1.4v3.2h-3.8V39.1z
				 M209.9,45.6l0.9-5.2h3.7l-1.2,7.2c0,1.3-0.9,1.8-2.6,1.7h-2.3v-3.1h0.8C209.7,46.2,209.9,46,209.9,45.6z M211.3,30.9
				c-1.2,0.1-1.8-0.5-1.9-1.8l-0.6-5.6h3.7l0.5,3.3c0.1,0.6,0.3,0.9,0.6,0.8h1v3.3H211.3z M215.9,45.4v-22h17.8v3.2h-4.9l-0.5,1.2
				h5.5v10.5c0.3,1.9-0.5,2.8-2.3,2.6h-2.7v5.5c0.3,2.4-0.6,3.5-2.8,3.1h-1.9v-3.1h0.5c0.3,0.1,0.5-0.1,0.5-0.6v-5h-4.9v-13h3.8
				l0.5-1.2h-5v20.2c0.3,1.9-0.5,2.7-2.3,2.4h-3.1V46h1C215.7,46.2,215.9,45.9,215.9,45.4z M219.8,45.9h0.4c0.3,0,0.5-0.1,0.5-0.5
				l0.8-4h3.2l-1.3,6.6c0,0.6-0.6,1-1.8,0.9h-1.8L219.8,45.9L219.8,45.9z M230.1,30.9h-6.5v1.7h6.5V30.9z M229.3,37.6
				c0.6,0.1,0.9-0.1,0.8-0.8v-0.9h-6.5v1.7C223.6,37.6,229.3,37.6,229.3,37.6z M229.2,41.6h3.2l0.8,4.1c0,0.3,0.1,0.5,0.5,0.5v2.9
				h-1.5c-1,0.1-1.7-0.4-1.8-1.4L229.2,41.6z"/>
		</g>
		<g>
			<path class="st1" d="M88.9,57.5H91v0.6c0,0.5-0.1,1-0.3,1.3c-0.1,0.4-0.5,0.6-1,0.8c-0.5,0.1-1.4,0.1-2.7,0.1
				c-1.4,0-2.3,0-2.9-0.1c-0.6,0-1-0.1-1.3-0.3c-0.3-0.1-0.5-0.4-0.6-0.5c-0.1-0.3-0.3-0.5-0.3-0.9c0-0.4,0-1,0-1.8
				c0-0.8,0-1.4,0-1.8c0-0.4,0.1-0.6,0.1-0.9c0.3-0.5,0.6-0.8,1.2-0.9c0.6-0.1,1.8-0.3,3.7-0.3c0.9,0,1.5,0,2,0c0.4,0,0.8,0.1,1,0.3
				c0.4,0.1,0.5,0.4,0.6,0.6c0.1,0.3,0.3,0.8,0.3,1.3v0.4h-2.2c0-0.1,0-0.3,0-0.3s0-0.1,0-0.3c0-0.1,0-0.1-0.1-0.3
				c-0.1-0.1-0.3-0.1-0.6-0.1c-0.1,0-0.4,0-0.6,0s-0.5,0-0.9,0c-0.6,0-1.2,0-1.4,0s-0.4,0.1-0.5,0.1c-0.1,0.1-0.3,0.3-0.3,0.5
				c0,0.3-0.1,0.6-0.1,1.2c0,0.5,0,0.9,0.1,1.2c0,0.3,0.1,0.4,0.3,0.5c0.1,0.1,0.4,0.1,0.6,0.3c0.3,0,0.8,0,1.4,0c0.9,0,1.4,0,1.7,0
				c0.3,0,0.4-0.1,0.5-0.1c0,0,0.1-0.1,0.1-0.3C88.9,57.9,88.9,57.8,88.9,57.5z"/>
			<path class="st1" d="M99.6,60.3L99,59.1h-4.7l-0.6,1.3H91l3.8-7.2h3.5l3.7,7.2H99.6z M98.2,57.5l-1.4-2.7h-0.4L95,57.5H98.2z"/>
			<path class="st1" d="M102.4,53.2h4l2.2,4.6l2.2-4.6h3.8v7.2h-2.2V55H112l-2.6,5.4h-1.8L105,55h-0.4v5.4h-2.2V53.2z"/>
			<path class="st1" d="M115.6,60.3v-7.2h5.1c0.4,0,0.6,0,0.9,0c0.3,0,0.6,0,0.9,0c0.1,0,0.3,0,0.4,0c0.1,0,0.3,0,0.5,0.1
				c0.8,0.1,1.2,0.5,1.4,1.3c0.1,0.3,0.1,0.5,0.1,0.8c0,0.3,0,0.8,0,1.3c0,0.6,0,1.2,0,1.4c0,0.1,0,0.3-0.1,0.5
				c0,0.1-0.1,0.3-0.1,0.4c-0.3,0.6-0.6,1-1.3,1.2c-0.3,0-0.4,0.1-0.5,0.1c-0.1,0-0.3,0-0.5,0c-0.3,0-0.4,0-0.5,0c-0.6,0-1,0-1.3,0
				h-5V60.3z M117.7,58.4h3.1c0.5,0,1,0,1.3,0c0.3,0,0.4-0.1,0.5-0.3c0.1-0.1,0.3-0.3,0.3-0.5c0-0.3,0.1-0.5,0.1-1c0-0.4,0-0.8,0-1
				c0-0.3-0.1-0.4-0.3-0.5c-0.1-0.1-0.3-0.3-0.5-0.3c-0.1,0-0.3,0-0.5,0c-0.3,0-0.5,0-0.9,0h-3.1V58.4z"/>
			<path class="st1" d="M133.5,60.3l-0.6-1.2h-4.7l-0.6,1.2h-2.6l3.8-7.2h3.5l3.7,7.2H133.5z M132.1,57.5l-1.4-2.7h-0.4l-1.4,2.7
				H132.1z"/>
			<path class="st1" d="M139,53.2h3.8l3.7,5.4h0.3v-5.4h2.2v7.2h-3.8l-3.7-5.4h-0.3v5.4H139V53.2z"/>
			<path class="st1" d="M150,53.2h7.9v1.7h-5.8v1h5.5v1.5h-5.5v1.2h5.9v1.8h-7.9v-7.2H150z"/>
			<path class="st1" d="M157.9,53.2h2.2l1.9,5.4h0.4l1.7-5.4h2.7l1.7,5.4h0.4l1.9-5.4h2.3l-2.8,7.2h-3.3l-1.4-5.2l-1.4,5.2h-3.3
				L157.9,53.2z"/>
			<path class="st1" d="M176,53.2h7.9v1.7h-5.8v1h5.5v1.5h-5.5v1.2h5.9v1.8h-7.9v-7.2H176z"/>
			<path class="st1" d="M184.7,53.2h3.8l3.7,5.4h0.3v-5.4h2.2v7.2h-3.8l-3.7-5.4h-0.3v5.4h-2.2V53.2z"/>
			<path class="st1" d="M195.7,53.2h7.9v1.7h-5.8v1h5.5v1.5h-5.5v1.2h5.9v1.8h-7.9v-7.2H195.7z"/>
			<path class="st1" d="M208.8,56.3h5v0.3c0,1,0,1.8-0.1,2.3c-0.1,0.8-0.5,1.3-1.4,1.5c-0.3,0-0.4,0.1-0.6,0.1c-0.3,0-0.4,0-0.6,0
				c-0.1,0-0.4,0-0.9,0c-0.5,0-1,0-1.2,0c-1.3,0-2.2,0-2.7-0.1c-0.5-0.1-0.9-0.3-1.2-0.4c-0.3-0.1-0.4-0.3-0.5-0.5
				c-0.1-0.3-0.1-0.5-0.3-0.8c0-0.4-0.1-1-0.1-1.9c0-0.6,0-1.2,0-1.5c0-0.4,0.1-0.6,0.3-0.9c0.3-0.5,0.6-0.9,1.3-1
				c0.8-0.1,1.9-0.3,3.3-0.3c0.5,0,0.9,0,1.2,0c0.4,0,0.6,0,0.9,0s0.5,0,0.8,0.1c0.1,0,0.4,0.1,0.6,0.1c0.5,0.1,0.9,0.5,1,1.2
				c0,0.1,0,0.3,0.1,0.5c0,0.3,0,0.4,0,0.6h-2.2c0-0.3,0-0.4,0-0.4c0-0.1-0.1-0.1-0.1-0.1c-0.1,0-0.1-0.1-0.3-0.1
				c-0.1,0-0.3,0-0.5,0c-0.3,0-0.4,0-0.5,0c-0.6,0-1,0-1.2,0c-0.8,0-1.3,0-1.7,0c-0.3,0-0.5,0.1-0.6,0.3c-0.1,0.1-0.3,0.3-0.3,0.5
				c0,0.3-0.1,0.6-0.1,1.2c0,0.6,0,1,0,1.3s0.1,0.4,0.3,0.5c0.1,0.1,0.3,0.1,0.5,0.1s0.5,0,0.9,0c0.3,0,0.6,0,0.9,0
				c0.5,0,0.8,0,1.2,0c0.3,0,0.5,0,0.8,0c0.1,0,0.3,0,0.3,0c0.1,0,0.1,0,0.3-0.1c0.1,0,0.1-0.1,0.3-0.3c0-0.1,0.1-0.3,0.1-0.5v-0.3
				h-2.8V56.3z"/>
			<path class="st1" d="M214.6,60.3v-7.2h5.2c1.3,0,2,0,2.2,0c0.3,0,0.5,0.1,0.8,0.3c0.3,0.1,0.5,0.4,0.5,0.6
				c0.1,0.3,0.1,0.8,0.1,1.4c0,0.5,0,0.9-0.1,1.2c-0.1,0.3-0.1,0.4-0.4,0.6c-0.1,0.1-0.5,0.3-0.9,0.4c0.3,0,0.4,0,0.5,0.1
				c0.1,0.1,0.3,0.1,0.4,0.3s0.1,0.3,0.3,0.5c0,0.3,0,0.6,0,1.3v0.5H221V60c0-0.4,0-0.6,0-0.9c0-0.1-0.1-0.3-0.1-0.4
				c-0.1-0.1-0.1-0.1-0.3-0.1c-0.1,0-0.3,0-0.4,0c-0.1,0-0.4,0-0.5,0h-2.9v1.8H214.6z M216.8,56.6h3.1c0.1,0,0.4,0,0.5,0
				c0.1,0,0.3,0,0.4,0c0.1,0,0.1,0,0.3-0.1c0.1,0,0.1-0.1,0.3-0.3c0-0.1,0-0.3,0-0.5c0-0.3,0-0.4-0.1-0.5c0-0.1-0.1-0.3-0.3-0.3
				c-0.1,0-0.1,0-0.3,0h-0.9h-2.9V56.6z"/>
			<path class="st1" d="M223.5,53.2h2.8l2.3,2.8l2.2-2.8h2.8l-4,4.6v2.6h-2.3v-2.6L223.5,53.2z"/>
		</g>
	</g>
</g>
</svg>
