<?xml version="1.0" encoding="utf-8"?>
<!-- Generator: Adobe Illustrator 19.2.1, SVG Export Plug-In . SVG Version: 6.00 Build 0)  -->
<svg version="1.1" id="图层_1" xmlns="http://www.w3.org/2000/svg" xmlns:xlink="http://www.w3.org/1999/xlink" x="0px" y="0px"
	 viewBox="0 0 400 80" style="enable-background:new 0 0 400 80;" xml:space="preserve">
<style type="text/css">
	.st0{fill:#ED1B25;}
</style>
<g>
	<path class="st0" d="M36.7,24.4L39,25h5.2l0.9,0.9c-0.3,2.4-0.7,4-1.4,4.9c3.1,0.5,4.7,1.6,4.7,3.3l0.5-0.5h2.3l0.9,1
		c-0.3,0.9-2.5,2.5-6.5,4.8v0.5l0.9,0.9c-1.3,1.3-1.9,3.4-1.9,6.3h1l2.8-1.9l0.5,0.5v0.4L44.5,49v0.5c8.1,1.6,12.1,3,12.1,4.3
		l-1.4,1.4h-0.9c-1.3-0.9-2.9-1.4-4.7-1.4v-1.5h-1.4L45,51.4v0.9l0.5,2.9l-1.4,2h-1.4l-5.2-3.4c-2.1,1.6-3.6,2.4-4.6,2.4l-1.4-1.5
		l6.5-6.6h-1.9v-0.5l0.5-0.5c0.6-0.5,0.9-1.5,0.9-2.9l5.2-4.3l-1-1l-2.3,1.9L39,40.4c0,0.4-1.2,1.2-3.7,2.4c-3,5.6-5.8,9.5-8.4,11.9
		h-1L25,53.8v-1c0-0.6,1.9-3,5.6-7.1c0.9-3,3.1-7.1,6.6-12.5c-1.3,0-1.9-0.5-1.9-1.5l7-3.4v-0.4h-1.9L40,28.2h-0.5l-3.3-2.8l0.5-0.5
		V24.4z M35.8,39.4v0.5h0.4l6.6-3.4v-0.9C38.1,36.6,35.8,37.9,35.8,39.4z M37.6,35.1v0.5h0.5c3.1-1.3,4.7-2.7,4.7-4.4h-0.5
		C39.5,32.9,37.9,34.2,37.6,35.1z M39,51.4v0.5l1.9,1.9h1.4v-2.9h-0.9L39,51.4z M40,44.7v0.5l2.3,0.5v-1.5L40,44.7z"/>
	<path class="st0" d="M62.5,43.4H63l6.1,6.6l3.5,1.5l6.1-0.5h8.6l1.5,1.5V53c0,0.9-4.4,1.8-13.2,2.5l-1.5,0.5h-1
		c-4-2.4-6.7-3.5-8.1-3.5h-2.5l-2,0.5c-1.3-0.5-2-1-2-1.5c0-2.4,1.2-3.5,3.5-3.5v0.5l2-1l-1.5-2.5V43.4z M63.5,31.3
		c1,0.2,1.5,1.5,1.5,4l-0.5,0.5H64l-1.5-1.5v-2L63.5,31.3z M75.6,24.2h0.5c1,0.3,1.5,1.4,1.5,3v4l2,2.5v0.5c-2.4,1.5-3.5,4-3.5,7.6
		l-0.5,0.5l0.5,0.5c5.1,1.4,7.6,2.9,7.6,4.6l-2,1l-6.6-3.5l-4.6,2.5h-1.5L67.5,46l5.1-5.1v-2.5c-2.4,0-3.5-0.5-3.5-1.5
		c3.7-1.1,5.6-3.1,5.6-6.1v-5.6L75.6,24.2z"/>
	<path class="st0" d="M100.2,29.4l2.2,0.5v1l-4.2,4.2h1l3.7-0.5c0.1,1.8,0.6,2.7,1.6,2.7l-3.3,4.2v1.5l0.5,0.5c-1.3,6.7-2.6,10-4,10
		l-3.2-3.8c2.3-2.7,3.8-4,4.7-4v-1h-0.5l-1.5,1l-1.1-1v-1.1l1.1-1.5v-0.5h-0.6l-7.3,3.2v-1.6c6.9-3,10.4-4.9,10.5-5.7h-0.5l-5.3,0.5
		v-1l3.8-4.3v-0.5c-1.8,0-2.7-0.3-2.7-1v-0.5L100.2,29.4z M97.7,48.7v0.5l1,1l0.5-0.6v-2.4L97.7,48.7z M99.7,24.1l3.2,0.5v1l-1.1,1
		l-3.5-1v-1L99.7,24.1z M115.5,28.4l0.5,0.5v0.5c-2.9,0.9-4.3,2.3-4.3,4v7.5l6.5-4.2h0.5l1,1c0,0.7-1.9,1.9-5.8,3.7
		c-2.3,4.3-4,6.7-5.2,7.3h-0.5l-1-1c1.5-1.9,2.7-7.2,3.5-15.8C112.1,30.2,113.7,29,115.5,28.4z M115.5,42.9h1l0.5,3.7v3.7
		c0,2.9-1.1,5-3.2,6.3h-0.5v-1.1C114.8,54.1,115.5,49.9,115.5,42.9z"/>
	<path class="st0" d="M132.6,27.7l1,1c-3,3.7-4.6,6.9-4.6,9.6l3.5-2c0.6,2,1.1,3,1.5,3c5.1-2.1,7.6-4.1,7.6-6.1v-1l-0.5-0.5v-0.5
		c0.7-1.5,1.3-2.4,2-2.5l0.5,1.5l-0.5,4l0.5,0.5l0.5-0.5h3v0.5c0,1-0.7,1.5-2,1.5l1.5,2.5c-1.4,3-3,4.6-4.6,4.6V46l4,0.5l2.5-2h1
		l0.5,2.5v3.5l-2,5.6h-1l-1-1v-0.5l1-1.5v-5.6c-1.9,2-4.5,3-7.6,3l-0.5-0.5v-5.1l-2.5,0.5l-1-1v-0.5c3.7-3.7,5.6-5.9,5.6-6.6h-0.5
		c-5.1,1.7-7.6,3.7-7.6,6.1v7.1l-2,2.5h-1c-0.7,0-1.7-2.2-3-6.6h-0.5l-1,4.6l0.5,1.5c-0.7,0-1,0.5-1,1.5h-1.5l-0.5-2l4-15.2v-0.5
		l-1.5,1h-1l-1.5-1.5c0.7-4.7,1.5-7.1,2.5-7.1c0.7,0.2,1.3,1,2,2.5L132.6,27.7z M130,38.4c-1.6,1.3-2.6,3.8-3,7.6
		c2.7-2.8,4-4.8,4-6.1v-0.5L130,38.4z M129.5,45.4V47l1,1v-3.5L129.5,45.4z M138.6,42.4h0.5l1-1v-0.5L138.6,42.4z M143.2,38.4
		l-0.5,2h1.5v-2H143.2z"/>
	<path class="st0" d="M161,28.7l2.5,5.1c-3.4,1.6-5.1,3.5-5.1,5.6c1,1.9,1.5,3.5,1.5,5.1h0.5c0.7,0,1-0.7,1-2h1
		c-2.3,9.1-4.1,13.7-5.6,13.7h-0.5l-1.5-1.5V53c1.3-3.3,2.2-8,2.5-14.2l2-5.1h0.5l-0.5-2.5v-1L161,28.7z M175.7,28.2l1,1v1
		c-1,1.7-2.2,2.5-3.5,2.5v1h2.5l1.5,1.5l-0.5,0.5v0.5h1l4-0.5l0.5,0.5v1l-5.6,7.6v9.1l-1,1h-0.5l-5.1-1l-1,1h-1l-0.5-1.5
		c0.3-3.7,0.8-5.6,1.5-5.6c0.8,0,1.4,1.4,2,4h3.5V46c-1.4,0-2-0.7-2-2h-0.5c0,1-0.3,1.5-1,1.5h-0.5c-0.7,0-1-0.7-1-2l-6.6,9.6l-1-1
		v-1.5c5.1-7.6,7.6-12.5,7.6-14.7l1-3.5h-2v-0.5C168.6,30.9,171,29.7,175.7,28.2z M171.7,35.3l-0.5,3h0.5c1.8,0,2.8-0.5,3-1.5
		l-2.5-1.5H171.7z M172.2,39.9v1h0.5l3-1h3l0.5-2h-1L172.2,39.9z M173.2,41.9l1,1h0.5v-1H173.2z M181.3,48.5h0.5l2.5,3
		c-0.5,1.3-1,2-1.5,2l-1.5-1.5V48.5z"/>
	<path class="st0" d="M262.3,24.3c3.4,0.5,5.1,1.2,5.1,2v2l-4,3l-0.5,1.5l2.5-0.5h1.5l1.5,1.5l-2.5,12.7c7.4,0.3,11.1,1.5,11.1,3.5
		c-0.5,1.3-1,2-1.5,2H275l-7.6-2.5h-0.5c-2.8,0-8,1.5-15.7,4.6h-1l-2-2v-0.5c0-0.8,2.7-1.9,8.1-3c0-0.7,2-1.2,6.1-1.5l0.5-2.5v-0.5
		l-10.1,2l-0.5-0.5v-1c3.3-3.5,6-7.5,8.1-12.1l-3-5.1C260.5,26,262.2,25,262.3,24.3z M258.3,41.5h0.5c3.7,0,5.6-2,5.6-6.1h-1.5
		L258.3,41.5z"/>
	<path class="st0" d="M288.8,30.9c0.9,0,1.6,3.3,1.9,10l0.4-0.5h1v0.5l-1.4,2.2v9l-1.9,2.2h-0.4c-0.9-0.4-1.4-1.5-1.4-3.3v-0.5
		l0.4-0.5v-0.5h-0.9l-3.2,3.2h-1l-0.9-1v-1.1l1.9-3.7l-1-10.6v-0.5c0.3-2.1,0.7-3.2,1.4-3.2c0.6,0,0.9,1.2,0.9,3.7l1.4-1h1v1.6h0.4
		C287.4,32.8,287.8,30.9,288.8,30.9z M288.4,27.1l0.9,1.1l-1.4,1.5c-2.2-0.5-3.3-1.2-3.3-2.2l0.5-0.5H288.4z M296.2,26.6
		c0.7,0,1.3,1.4,1.8,4.3h0.9c0-1.4,0.8-2.7,2.4-3.8h0.4v2.2c-1.5,1.9-2.3,3.2-2.3,4.2l0.5-0.5h2.3l0.9,1.1c-2.2,3.1-3.7,4.7-4.6,4.7
		v1.6l4.6-2.7l0.5,0.5v0.5l-4.7,5.3c2.7,2.5,6.5,4.5,11.5,5.8l0.5,0.5v0.5l-2.3,1.6h-0.5c-4,0-7.6-1.6-10.6-4.7
		c-0.4,1.8-2.6,3.9-6.5,6.3l-0.9-1.1c0.9,0,2.3-2.1,4.2-6.3v-0.5c-0.9,0-1.4-0.3-1.4-1v-1.1c1.9-1.8,2.8-3.3,2.8-4.7v-0.6l-0.5,0.6
		h-0.9l-0.9-1.1v-0.5l2.8-3.7l-1-1.1v-5.3L296.2,26.6z"/>
	<path class="st0" d="M316.3,34.7h0.5c1.3,2.6,2,5.1,2,7.6v2.5c0,2.8-1.2,5.1-3.5,7.1l-2-1.5v-2c1-0.8,1.9-3.6,2.5-8.6l-0.5-4
		L316.3,34.7z M329.5,26.1h3.5c3.3,0,5.6,1.2,7.1,3.5c-1,1.6-1.5,4.1-1.5,7.6v2l2,14.2l-2.5,2h-1.5c-2,0-5.2-1.4-9.6-4v-0.5l1-1h1
		c1.2,1,2.7,1.7,4.6,2l1.5-0.5l-0.5-8.6v-1.5l-0.5,0.5h-1l-1.5-1H331c0,1.5-1.2,2.7-3.5,3.5c-0.2-1.7-1.5-2.5-4-2.5c0,1.4-1,2-3,2
		l-0.5-0.5v-1l2-2.5l-1.5-2v-0.5c0-0.7,0.8-1,2.5-1c0.7-1.5,1.3-2.4,2-2.5l1,1l-0.5,3.5l3.5,2.5l0.5-0.5v-1.5l-0.5-3.5
		c1-0.3,1.7-0.9,2-2l-0.5-1.5l0.5-0.5h0.5l1,1v0.5l-0.5,2.5l2,1.5h0.5v-4.6c0-2.4-1.5-3.5-4.6-3.5l-8.1,1.5l-0.5-0.5v-0.5
		C323.2,28,325.9,27,329.5,26.1z"/>
</g>
<g>
	<path class="st0" d="M364.7,38.5v2.3h-7.2V48h-2.3v-7.2h-7.2v-2.3h7.2v-7.2h2.3v7.2H364.7z"/>
</g>
</svg>
