<?xml version="1.0" encoding="utf-8"?>
<!-- Generator: Adobe Illustrator 19.2.1, SVG Export Plug-In . SVG Version: 6.00 Build 0)  -->
<svg version="1.1" id="图层_1" xmlns="http://www.w3.org/2000/svg" xmlns:xlink="http://www.w3.org/1999/xlink" x="0px" y="0px"
	 viewBox="0 0 200 50" style="enable-background:new 0 0 200 50;" xml:space="preserve">
<style type="text/css">
	.st0{fill:#FFFFFF;}
</style>
<g>
	<path class="st0" d="M6,45.3c0,0-3.8-13.8,15.9-31.1C41.6-3,54.8,7,45.4,21.2c0,0,3-20.1-21.1-2.7C4.8,32.6,6,45.3,6,45.3z"/>
	<polygon class="st0" points="22.7,22 28.9,17.4 24.4,40.4 19,40.4 	"/>
	<g>
		<path class="st0" d="M85.7,35.8h1.6c0.2,0,0.3,0.2,0.3,0.4l-0.2,1c0,0.1-0.2,0.2-0.3,0.2h-6.2c-0.2,0-0.3-0.2-0.3-0.4l0.2-0.9
			c0-0.1,0-0.1,0.1-0.2l3.4-3.3c0.2-0.2,0.1-0.5-0.2-0.5h-1.8c-0.2,0-0.3-0.2-0.3-0.4l0.2-0.8c0-0.1,0-0.1,0.1-0.2l3.9-3.8
			c0.1-0.1,0.1-0.1,0.2-0.1h2.8c0.3,0,0.4,0.3,0.2,0.5l-2.7,2.9c-0.2,0.2-0.1,0.5,0.2,0.5h1.5c0.2,0,0.3,0.2,0.3,0.4l-0.3,1.1
			c0,0.1,0,0.1-0.1,0.1l-3,2.9C85.3,35.5,85.4,35.8,85.7,35.8z M90.3,39l-0.9,1.3c-0.1,0.1-0.1,0.1-0.2,0.1h-9
			c-0.2,0-0.3-0.2-0.3-0.4l0.2-1.3c0-0.1,0.1-0.2,0.3-0.2H90C90.3,38.5,90.5,38.8,90.3,39z M93.9,34.8L91.6,39
			c-0.4,0.8-1.3,1.4-2.2,1.4h-1.6c-0.1,0-0.3-0.1-0.3-0.2l-0.2-1h0.9l2.5-4.8c0.1-0.1,0.2-0.2,0.3-0.2h2.6
			C93.9,34.3,94,34.5,93.9,34.8z M98.4,26.8l-0.2,1.1h4c0.2,0,0.3,0.2,0.3,0.4l-0.2,1c0,0.1-0.2,0.2-0.3,0.2h-6.2
			c-0.1,0-0.2,0-0.2,0.1l-2.3,2.3c-0.2,0.2,0,0.5,0.2,0.5h5.8c0.2,0,0.4,0.3,0.2,0.5l-0.6,0.9c-0.1,0.1-0.1,0.1-0.2,0.1h-9.5
			c-0.2,0-0.3-0.2-0.3-0.4l0.2-1c0-0.1,0-0.1,0.1-0.1l2.3-2.4c0.2-0.2,0.1-0.5-0.2-0.5h-1.2c-0.2,0-0.3-0.2-0.3-0.4l0.2-1
			c0-0.1,0.2-0.2,0.3-0.2h3.9c0.1,0,0.3-0.1,0.3-0.2l0.1-0.6c0-0.1,0.2-0.2,0.3-0.2h3.4V26.8z M99,34.7l-0.9,3.9
			c0,0.2,0.1,0.4,0.3,0.4h1.2c0.2,0,0.4,0.3,0.2,0.5l-0.6,0.8c-0.1,0.1-0.1,0.1-0.2,0.1h-4c-0.2,0-0.3-0.2-0.3-0.4l1.2-5.5
			c0-0.1,0.2-0.2,0.3-0.2h2.5C98.9,34.3,99.1,34.4,99,34.7z M98.4,33.6l-0.6-2.7c0-0.2,0.1-0.4,0.3-0.4h2.3c0.1,0,0.3,0.1,0.3,0.2
			l0.6,2.7c0,0.2-0.1,0.4-0.3,0.4h-2.3C98.5,33.9,98.4,33.8,98.4,33.6z"/>
		<path class="st0" d="M122.6,33l-0.5,1.8c0,0.1-0.2,0.2-0.3,0.2h-18.4c-0.2,0-0.3-0.2-0.3-0.4l0.5-1.8c0-0.1,0.2-0.2,0.3-0.2h18.4
			C122.5,32.6,122.6,32.8,122.6,33z"/>
	</g>
	<polygon class="st0" points="47,40.4 43.5,40.4 46.2,26.4 49.7,26.4 	"/>
	<g>
		<path class="st0" d="M29.8,29.6l-1.6,8.2c-0.2,1.3,0.8,2.6,2.2,2.6h7.5c1.8,0,3.5-1.3,3.8-3.1l1.6-8.2c0.2-1.3-0.8-2.6-2.2-2.6
			h-7.5C31.7,26.4,30.1,27.8,29.8,29.6z M37.7,37.1h-5c-0.7,0-1.2-0.6-1-1.2l1-5.3c0.1-0.5,0.5-0.9,1-0.9h5c0.7,0,1.2,0.6,1,1.2
			l-1,5.3C38.7,36.8,38.2,37.1,37.7,37.1z"/>
	</g>
	<polygon class="st0" points="77,40.4 73.5,40.4 76.2,26.4 79.7,26.4 	"/>
	<polygon class="st0" points="67.4,40.4 63.9,40.4 64.9,35.2 68.4,35.2 	"/>
	<polygon class="st0" points="57.3,40.4 53.8,40.4 56.5,26.4 60,26.4 	"/>
	<polygon class="st0" points="53.1,40.4 56.6,40.4 50.9,26.4 47.4,26.4 	"/>
	<polygon class="st0" points="74.7,26.4 71.3,26.4 67.1,32.2 64.8,26.4 61.3,26.4 64.9,35.2 68.4,35.2 	"/>
	<g>
		<path class="st0" d="M129.5,26.7c0.6,0,1.1,0.2,1.6,0.4s0.9,0.7,1.3,1.3c0.3,0.6,0.4,1.1,0.4,1.7c0,0.6-0.2,1.1-0.4,1.7
			c-0.3,0.6-0.7,0.9-1.3,1.3s-1.1,0.4-1.7,0.4s-1.1-0.2-1.7-0.4c-0.5-0.3-0.9-0.7-1.3-1.3c-0.3-0.5-0.4-1.1-0.4-1.7
			c0-0.6,0.2-1.2,0.4-1.7c0.3-0.5,0.7-0.9,1.3-1.3C128.4,26.8,129,26.7,129.5,26.7z M129.5,27.3c-0.5,0-0.9,0.1-1.3,0.3
			c-0.4,0.3-0.8,0.6-1,1c-0.3,0.4-0.3,0.9-0.3,1.4c0,0.5,0.1,0.9,0.3,1.3c0.3,0.4,0.6,0.8,1,1c0.4,0.3,0.9,0.3,1.3,0.3
			c0.4,0,0.9-0.1,1.3-0.3c0.4-0.3,0.8-0.6,1-1c0.3-0.4,0.3-0.9,0.3-1.3c0-0.5-0.1-0.9-0.3-1.4c-0.3-0.5-0.6-0.8-1-1
			S130,27.3,129.5,27.3z M128.1,31.9v-3.6h1.3c0.4,0,0.8,0,0.9,0.1s0.3,0.2,0.4,0.3c0.1,0.2,0.2,0.3,0.2,0.5c0,0.3-0.1,0.5-0.3,0.7
			c-0.2,0.2-0.4,0.3-0.8,0.3c0.2,0.1,0.3,0.1,0.3,0.2c0.2,0.2,0.3,0.3,0.5,0.7l0.4,0.7h-0.7l-0.3-0.6c-0.3-0.4-0.4-0.8-0.6-0.8
			c-0.1-0.1-0.3-0.1-0.5-0.1h-0.3v1.5h-0.6V31.9z M128.6,29.9h0.7c0.3,0,0.6-0.1,0.7-0.2s0.2-0.3,0.2-0.4c0-0.1,0-0.2-0.1-0.3
			s-0.2-0.2-0.3-0.2c-0.1,0-0.3-0.1-0.6-0.1h-0.7L128.6,29.9L128.6,29.9z"/>
	</g>
</g>
</svg>
