<?xml version="1.0" encoding="utf-8"?>
<!-- Generator: Adobe Illustrator 19.2.1, SVG Export Plug-In . SVG Version: 6.00 Build 0)  -->
<svg version="1.1" id="图层_1" xmlns="http://www.w3.org/2000/svg" xmlns:xlink="http://www.w3.org/1999/xlink" x="0px" y="0px"
	 viewBox="0 0 400 80" style="enable-background:new 0 0 400 80;" xml:space="preserve">
<style type="text/css">
	.st0{fill:#0154A4;}
	.st1{fill:#008B48;}
	.st2{fill:#241F1C;}
</style>
<g>
	<path class="st0" d="M10.9,72.4c0,0-6-21.5,24.7-48.4C66.2-2.8,86.8,12.8,72.1,35c0,0,4.7-31.2-32.8-4.2
		C9.1,52.7,10.9,72.4,10.9,72.4z"/>
	<polygon class="st1" points="36.8,36.2 46.5,29 39.5,64.8 31,64.8 	"/>
	<g>
		<path class="st2" d="M134.9,57.6h2.5c0.3,0,0.5,0.3,0.5,0.6l-0.3,1.6c0,0.2-0.3,0.3-0.5,0.3h-9.6c-0.3,0-0.5-0.3-0.5-0.6l0.3-1.4
			c0-0.2,0-0.2,0.2-0.3l5.3-5.2c0.3-0.3,0.2-0.8-0.3-0.8h-2.8c-0.3,0-0.5-0.3-0.5-0.6l0.3-1.3c0-0.2,0-0.2,0.2-0.3l6.1-6
			c0.2-0.2,0.2-0.2,0.3-0.2h4.4c0.5,0,0.6,0.5,0.3,0.8l-4.2,4.6c-0.3,0.3-0.2,0.8,0.3,0.8h2.4c0.3,0,0.5,0.3,0.5,0.6l-0.5,1.7
			c0,0.2,0,0.2-0.2,0.2l-4.7,4.6C134.2,57.1,134.4,57.6,134.9,57.6z M142.1,62.6l-1.4,2c-0.2,0.2-0.2,0.2-0.3,0.2h-14
			c-0.3,0-0.5-0.3-0.5-0.6l0.3-2c0-0.2,0.2-0.3,0.5-0.3h14.9C142.1,61.8,142.4,62.3,142.1,62.6z M147.6,56l-3.5,6.6
			c-0.6,1.3-2,2.2-3.5,2.2h-2.5c-0.2,0-0.5-0.2-0.5-0.3l-0.3-1.6h1.4l3.9-7.4c0.2-0.2,0.3-0.3,0.5-0.3h4.1
			C147.6,55.4,147.8,55.7,147.6,56z M154.7,43.6l-0.3,1.7h6.3c0.3,0,0.5,0.3,0.5,0.6l-0.3,1.6c0,0.2-0.3,0.3-0.5,0.3h-9.6
			c-0.2,0-0.3,0-0.3,0.2l-3.6,3.6c-0.3,0.3,0,0.8,0.3,0.8h9c0.3,0,0.6,0.5,0.3,0.8l-0.9,1.4c-0.2,0.2-0.2,0.2-0.3,0.2h-14.8
			c-0.3,0-0.5-0.3-0.5-0.6l0.3-1.6c0-0.2,0-0.2,0.2-0.2l3.6-3.8c0.3-0.3,0.2-0.8-0.3-0.8h-1.9c-0.3,0-0.5-0.3-0.5-0.6l0.3-1.6
			c0-0.2,0.3-0.3,0.5-0.3h6.1c0.2,0,0.5-0.2,0.5-0.3l0.2-0.9c0-0.2,0.3-0.3,0.5-0.3h5.3V43.6z M155.6,55.8l-1.4,6.1
			c0,0.3,0.2,0.6,0.5,0.6h1.9c0.3,0,0.6,0.5,0.3,0.8l-0.9,1.3c-0.2,0.2-0.2,0.2-0.3,0.2h-6.3c-0.3,0-0.5-0.3-0.5-0.6l1.9-8.5
			c0-0.2,0.3-0.3,0.5-0.3h3.9C155.5,55.4,155.8,55.5,155.6,55.8z M154.7,54.3l-0.9-4.2c0-0.3,0.2-0.6,0.5-0.6h3.6
			c0.2,0,0.5,0.2,0.5,0.3l0.9,4.2c0,0.3-0.2,0.6-0.5,0.6h-3.6C154.8,54.7,154.7,54.6,154.7,54.3z"/>
		<path class="st2" d="M192.3,53.3l-0.8,2.8c0,0.2-0.3,0.3-0.5,0.3h-28.6c-0.3,0-0.5-0.3-0.5-0.6l0.8-2.8c0-0.2,0.3-0.3,0.5-0.3
			h28.6C192.1,52.7,192.3,53,192.3,53.3z"/>
	</g>
	<polygon class="st2" points="74.7,64.8 69.3,64.8 73.4,43 78.8,43 	"/>
	<g>
		<path class="st2" d="M47.9,48l-2.5,12.8c-0.4,2.1,1.2,4.1,3.4,4.1h11.7c2.8,0,5.4-2.1,5.9-4.8l2.5-12.8c0.4-2.1-1.2-4.1-3.4-4.1
			H53.8C50.9,43,48.4,45.1,47.9,48z M60.2,59.7h-7.8c-1,0-1.8-0.9-1.6-1.9l1.6-8.2c0.2-0.8,0.9-1.3,1.6-1.3h7.8c1,0,1.8,0.9,1.6,1.9
			l-1.6,8.2C61.7,59.1,61,59.7,60.2,59.7z"/>
	</g>
	<polygon class="st2" points="121.4,64.8 116,64.8 120.1,43 125.5,43 	"/>
	<polygon class="st2" points="106.4,64.8 101,64.8 102.5,56.8 108,56.8 	"/>
	<polygon class="st2" points="90.8,64.8 85.3,64.8 89.4,43 94.9,43 	"/>
	<polygon class="st2" points="84.1,64.8 89.5,64.8 80.7,43 75.3,43 	"/>
	<polygon class="st2" points="117.8,43 112.5,43 105.9,52 102.3,43 96.9,43 102.5,56.8 107.9,56.8 	"/>
	<g>
		<path d="M203,43.4c0.9,0,1.7,0.3,2.5,0.7s1.4,1.1,2,2c0.5,0.9,0.7,1.7,0.7,2.6c0,0.9-0.3,1.7-0.7,2.6c-0.4,0.9-1.1,1.4-2,2
			c-0.9,0.5-1.7,0.7-2.6,0.7c-0.9,0-1.7-0.3-2.6-0.7c-0.8-0.4-1.4-1.1-2-2c-0.4-0.8-0.7-1.7-0.7-2.6c0-0.9,0.3-1.8,0.7-2.6
			c0.5-0.8,1.1-1.4,2-2C201.3,43.7,202.2,43.4,203,43.4z M203,44.3c-0.8,0-1.4,0.1-2.1,0.5s-1.2,0.9-1.6,1.6
			c-0.4,0.7-0.5,1.4-0.5,2.2s0.1,1.4,0.5,2.1c0.4,0.7,0.9,1.2,1.6,1.6c0.7,0.4,1.4,0.5,2.1,0.5s1.4-0.1,2.1-0.5s1.2-0.9,1.6-1.6
			c0.4-0.7,0.5-1.4,0.5-2.1c0-0.8-0.1-1.4-0.5-2.2c-0.4-0.8-0.9-1.2-1.6-1.6S203.8,44.3,203,44.3z M200.8,51.6v-5.6h2
			c0.7,0,1.2,0,1.4,0.1c0.3,0.1,0.5,0.3,0.7,0.5c0.1,0.3,0.3,0.5,0.3,0.8c0,0.4-0.1,0.8-0.4,1.1c-0.3,0.3-0.7,0.5-1.2,0.5
			c0.3,0.1,0.4,0.1,0.5,0.3c0.3,0.3,0.5,0.5,0.8,1.1l0.7,1.1h-1.1l-0.5-0.9c-0.4-0.7-0.7-1.2-0.9-1.3c-0.1-0.1-0.4-0.1-0.8-0.1h-0.5
			v2.4h-0.9V51.6z M201.7,48.4h1.1c0.5,0,0.9-0.1,1.1-0.3c0.1-0.1,0.3-0.4,0.3-0.7c0-0.1,0-0.3-0.1-0.4c-0.1-0.1-0.3-0.3-0.4-0.3
			c-0.1,0-0.5-0.1-0.9-0.1h-1.1v1.7H201.7z"/>
	</g>
</g>
</svg>
