<?xml version="1.0" encoding="utf-8"?>
<!-- Generator: Adobe Illustrator 19.2.1, SVG Export Plug-In . SVG Version: 6.00 Build 0)  -->
<svg version="1.1" id="图层_1" xmlns="http://www.w3.org/2000/svg" xmlns:xlink="http://www.w3.org/1999/xlink" x="0px" y="0px"
	 viewBox="0 0 200 50" style="enable-background:new 0 0 200 50;" xml:space="preserve">
<style type="text/css">
	.st0{fill:#FFFFFF;}
	.st1{fill:#004097;}
	.st2{fill:#FFF000;}
	.st3{fill:#E50012;}
	.st4{fill:#009844;}
	.st5{fill:url(#SVGID_1_);}
</style>
<g>
	<g>
		<g>
			<path class="st0" d="M51.8,19.9v-1H64v1h-6.6c-0.8,1.8-1.8,3.3-3.2,4.6c1.6,0,2.9,0,3.8-0.1c1-0.1,2.1-0.2,3.2-0.3
				c-0.2-0.6-0.6-1.3-1-2.1h1.2c0.8,1.3,1.4,2.6,1.9,4.1h-1.4c-0.1-0.4-0.2-0.7-0.3-1c-2.7,0.3-5.4,0.4-7.9,0.4h-0.9v-1.1
				c1.4-1.5,2.3-3.1,2.9-4.6H51.8z M52.9,16.1v-1h9.9v1H52.9z"/>
			<path class="st0" d="M71.6,18.6c0-0.2-0.1-0.5-0.2-0.7c-1,0.2-2.6,0.3-5,0.3v-1c0.9-0.8,1.7-1.7,2.2-2.8h1.5
				c-0.7,1.2-1.5,2.1-2.4,2.8c1.3,0,2.4-0.1,3.3-0.2c-0.1-0.4-0.4-0.9-0.6-1.3h1.1c0.6,1,1.1,1.9,1.3,2.9H71.6z M66.9,26.5v-7.4h5.2
				V25c0,1-0.5,1.5-1.6,1.5h-1v-0.9h0.6c0.5,0,0.7-0.2,0.7-0.6v-0.9h-2.7v2.4H66.9z M68.2,19.9v1.3h2.7v-1.3H68.2z M68.2,22v1.3h2.7
				V22H68.2z M74.8,19.8c-1,0-1.5-0.5-1.5-1.5v-3.9h1.3v2.1c1.3-0.3,2.1-0.8,2.5-1.6h1.3c-0.5,1.4-1.8,2.2-3.8,2.4v0.8
				c0,0.5,0.2,0.7,0.7,0.7h1.4c0.5,0,0.7-0.2,0.7-0.7v-0.4h1v0.6c0.1,1-0.5,1.5-1.6,1.4H74.8z M74.8,26.3c-1,0-1.5-0.5-1.5-1.5v-4.5
				h1.3v2.3c1.2-0.3,2.1-0.9,2.5-1.7h1.3c-0.6,1.4-1.8,2.3-3.8,2.6v1.3c0,0.5,0.2,0.7,0.8,0.6h1.4c0.5,0,0.7-0.2,0.7-0.6v-0.4h1V25
				c0,1-0.5,1.4-1.5,1.4H74.8z"/>
			<path class="st0" d="M81.2,16v-1h2.5c0.8,0,1.5-0.1,2.2-0.3v1c-0.7,0.2-1.3,0.3-1.7,0.3v1.8h1.7v0.9h-1.7
				c0.4,1.2,0.9,2.3,1.6,3.4v1.3c-0.7-0.8-1.3-1.6-1.6-2.3v5.5h-1.3v-5.2c-0.4,1-1.1,2-2.1,3.1v-1.3c1-1.4,1.6-2.9,2-4.5H81v-0.9
				h1.9V16H81.2z M86.1,23.3v-1h4.1v-7.9h1.4v7.9h1.7v1h-1.7v3.3h-1.4v-3.3H86.1z M89.3,20.9c-1-0.7-2-1.1-3.1-1.3v-1
				c1.2,0.1,2.3,0.4,3.1,0.9V20.9z M89.6,17.6c-0.9-0.5-1.9-0.9-3-1.1v-1c1.2,0.1,2.1,0.3,3,0.8V17.6z"/>
			<path class="st0" d="M95.6,17.3v-0.9H97v-2h1.4v2h1.2v0.9h-1.2v2.8c0.1,0,0.2-0.1,0.4-0.1c0.4-0.1,0.7-0.2,0.9-0.3v0.9
				c-0.1,0-0.3,0.1-0.5,0.2c-0.2,0.1-0.4,0.2-0.8,0.3V25c0,1-0.5,1.5-1.5,1.4h-1.1v-0.9h0.6c0.5,0,0.7-0.1,0.6-0.5v-3.4
				c-0.6,0.1-1.1,0.2-1.6,0.3v-1.2c0.7-0.1,1.2-0.1,1.6-0.2v-3.1H95.6z M100.1,16.9V16h2.9v-1.6h1.4V16h3.2v0.9h-3.2v2.1h2.8v0.9
				c-0.6,1.8-1.4,3.2-2.6,4.2c0.8,0.6,1.9,1.2,3.1,1.6v0.9c-1.6-0.5-3-1.1-4-1.8c-1.1,0.7-2.5,1.3-4.2,1.8v-0.9
				c1.2-0.4,2.3-0.9,3.3-1.6c-1-0.9-1.7-2.1-2.4-3.6h1.4c0.5,1.2,1.1,2.1,1.8,2.9c0.8-0.8,1.5-2,2.1-3.4h-5.6v-0.9h2.8v-2.1H100.1z"
				/>
		</g>
	</g>
	<g>
		<path class="st0" d="M61.2,38.4c-0.8,0-1.4-0.3-1.8-0.8c-0.3-0.4-0.5-1.1-0.5-2c0-1,0.2-1.8,0.7-2.3c0.4-0.4,0.9-0.6,1.6-0.6
			c0.6,0,1,0.1,1.4,0.4c0.3,0.3,0.5,0.6,0.5,1.1h-0.8c0-0.2-0.1-0.5-0.3-0.6c-0.2-0.2-0.5-0.3-0.7-0.3c-0.4,0-0.7,0.1-1,0.4
			c-0.3,0.3-0.4,0.9-0.4,1.9c0,0.8,0.1,1.4,0.3,1.7c0.3,0.3,0.6,0.5,1.1,0.5c0.3,0,0.6-0.1,0.8-0.3c0.2-0.2,0.3-0.4,0.3-0.7h0.8
			c0,0.4-0.2,0.8-0.5,1.1C62.2,38.2,61.8,38.4,61.2,38.4z"/>
		<path class="st0" d="M65.2,37.7h2.9v0.6h-3.7v-5.5h3.7v0.6h-2.9v1.8h2.1v0.6h-2.1V37.7z"/>
		<path class="st0" d="M71.8,38.4c-0.8,0-1.4-0.3-1.8-0.8c-0.3-0.4-0.5-1.1-0.5-2c0-1,0.2-1.8,0.7-2.3c0.4-0.4,0.9-0.6,1.6-0.6
			c0.6,0,1,0.1,1.4,0.4c0.3,0.3,0.5,0.6,0.5,1.1h-0.8c0-0.2-0.1-0.5-0.3-0.6c-0.2-0.2-0.5-0.3-0.7-0.3c-0.4,0-0.7,0.1-1,0.4
			c-0.3,0.3-0.4,0.9-0.4,1.9c0,0.8,0.1,1.4,0.3,1.7c0.3,0.3,0.6,0.5,1.1,0.5c0.3,0,0.6-0.1,0.8-0.3c0.2-0.2,0.3-0.4,0.3-0.7h0.8
			c0,0.4-0.2,0.8-0.5,1.1C72.8,38.2,72.4,38.4,71.8,38.4z"/>
		<path class="st0" d="M77.9,33.4v-0.6h4.6v0.6h-1.9v4.9h-0.8v-4.9H77.9z"/>
		<path class="st0" d="M84.5,37.7h2.9v0.6h-3.7v-5.5h3.7v0.6h-2.9v1.8h2.1v0.6h-2.1V37.7z"/>
		<path class="st0" d="M91,38.4c-0.8,0-1.4-0.3-1.8-0.8c-0.3-0.4-0.5-1.1-0.5-2c0-1,0.2-1.8,0.7-2.3c0.4-0.4,0.9-0.6,1.6-0.6
			c0.6,0,1,0.1,1.4,0.4c0.3,0.3,0.5,0.6,0.5,1.1h-0.8c0-0.2-0.1-0.5-0.3-0.6c-0.2-0.2-0.5-0.3-0.7-0.3c-0.4,0-0.7,0.1-1,0.4
			c-0.3,0.3-0.4,0.9-0.4,1.9c0,0.8,0.1,1.4,0.3,1.7c0.3,0.3,0.6,0.5,1.1,0.5c0.3,0,0.6-0.1,0.8-0.3c0.2-0.2,0.3-0.4,0.3-0.7h0.8
			c0,0.4-0.2,0.8-0.5,1.1C92.1,38.2,91.6,38.4,91,38.4z"/>
		<path class="st0" d="M97.3,32.8h0.8v5.5h-0.8v-2.5h-2.3v2.5h-0.8v-5.5h0.8v2.4h2.3V32.8z"/>
	</g>
	<g>
		<rect x="52.2" y="30.2" class="st0" width="55.2" height="0.5"/>
	</g>
	<g>
		<path class="st1" d="M13.4,9v32.5h32.1V9H13.4z M37,27.1c0,0-3.2-0.2-7,2.4c0,0,1.8-4.7,8.3-4.9C38.3,24.7,36.9,25.3,37,27.1z
			 M29.2,25.7c0,0,2.9-5.1,8.1-7.3c0.2-0.1,0.3-0.1,0.3-0.1c-0.1,0-0.2,0.1-0.3,0.1c-0.4,0.3-1.1,1.2-1.4,4
			C35.9,22.4,33.5,22.5,29.2,25.7z M37.6,11.6C36,12.8,35,16,35,16c-2.5,1.2-6.2,6.4-6.2,6.4C32.3,12.5,37.6,11.6,37.6,11.6z
			 M40.6,35.4c-0.6-0.4-1.4-1-2.5-1.7c-0.9-0.5-1.8-0.7-2.6-0.9c-2-0.5-3.7-0.1-4.7,0.2c-0.5,0.2-1.7,0.7-2,0.9
			c-0.5,0.3-1.3,0.7-1.7,1c-0.3,0.2-1.5,0.7-1.8,0.9c-1,0.4-2.1,0.7-3.8,0.5c-2.6-0.1-5-1.9-5.6-3.9c-0.1-0.4-0.4-1.4-0.2-2
			c0.4-1.5,1.4-2,1.4-2s-1.1-2.1,1.2-3.4c2.7-1.1,3.8,0.7,3.7,0.7c0.8-0.4,2.8-1.7,4.8,0.5c1.5,1.7-0.4,3.5-0.4,3.5s0.8,1.8-1,2.7
			c-2,1-3.7-0.4-3.7-2.1c0-1.2,0.8-1.4,1.3-1.3c0.2,0,0.3,0.2,0.3,0.3c-0.1,0.1-0.1,0.3-0.1,0.3c-0.6,1,0.4,2.1,1.4,1.4
			c1-0.8,1-2.1,0.1-3.3c-0.9-1.2-4.1-1.5-5.3,0.7c-1,1.9-0.3,3.6,0.9,4.4c0.2,0.1,0.5,0.3,0.8,0.4c0.6,0.3,1.8,0.5,2.2,0.5
			c1,0,2.3-0.4,4.5-1.4c2.9-1.3,5.1-1.4,7.7-0.5c0.2,0.1,0.8,0.3,1.3,0.6c0.4,0.2,1.6,1,1.9,1.2c0.7,0.6,1.4,1.1,1.6,1.3
			c1.9,1.8,2.5,2.3,2.5,2.3C42.3,36.6,42.3,36.5,40.6,35.4z"/>
		<path class="st2" d="M35,16c0,0,1-3.2,2.6-4.4c0,0-5.3,0.9-8.8,10.8C28.8,22.4,32.5,17.2,35,16z"/>
		<path class="st3" d="M37.3,18.4c-5.2,2.3-8.1,7.3-8.1,7.3c4.4-3.3,6.7-3.4,6.7-3.4C36.1,19.6,36.8,18.7,37.3,18.4z"/>
		<path class="st3" d="M37.3,18.4c0.1,0,0.2-0.1,0.3-0.1C37.6,18.3,37.5,18.3,37.3,18.4z"/>
		<path class="st4" d="M38.3,24.7c-6.5,0.2-8.3,4.9-8.3,4.9c3.9-2.6,7-2.4,7-2.4C36.9,25.3,38.3,24.7,38.3,24.7z"/>
		<path class="st1" d="M40.3,34.6c-0.2-0.2-0.9-0.7-1.6-1.3c-0.3-0.2-1.5-1-1.9-1.2c-0.5-0.3-1-0.5-1.3-0.6c-2.6-1-4.8-0.8-7.7,0.5
			c-2.3,1-3.5,1.4-4.5,1.4c-0.4,0-1.6-0.1-2.2-0.5c-0.2-0.1-0.6-0.3-0.8-0.4c-1.2-0.8-1.9-2.5-0.9-4.4c1.2-2.2,4.4-1.8,5.3-0.7
			c0.9,1.2,0.9,2.5-0.1,3.3c-1,0.7-2-0.4-1.4-1.4c0,0,0.1-0.1,0.1-0.3c0.1-0.1,0-0.3-0.3-0.3c-0.5,0-1.2,0.1-1.3,1.3
			c0,1.7,1.7,3,3.7,2.1c1.8-0.9,1-2.7,1-2.7s1.9-1.7,0.4-3.5c-1.9-2.1-4-0.8-4.8-0.5c0.1,0-1-1.8-3.7-0.7c-2.3,1.4-1.2,3.4-1.2,3.4
			s-1,0.5-1.4,2c-0.2,0.7,0.1,1.7,0.2,2c0.7,2,3,3.7,5.6,3.9c1.7,0.2,2.8-0.1,3.8-0.5c0.4-0.1,1.5-0.7,1.8-0.9
			c0.4-0.2,1.2-0.7,1.7-1c0.3-0.2,1.5-0.7,2-0.9c0.9-0.3,2.6-0.7,4.7-0.2c0.8,0.2,1.7,0.4,2.6,0.9c1.2,0.7,2,1.3,2.5,1.7
			c1.6,1.1,1.7,1.2,2.1,1.5C42.7,37,42.2,36.4,40.3,34.6z"/>
		<linearGradient id="SVGID_1_" gradientUnits="userSpaceOnUse" x1="22.1197" y1="39.208" x2="33.5372" y2="27.7906">
			<stop  offset="0.1452" style="stop-color:#7DCCF3"/>
			<stop  offset="0.9409" style="stop-color:#F1F8FC"/>
		</linearGradient>
		<path class="st5" d="M40.3,34.6c-0.2-0.2-0.9-0.7-1.6-1.3c-0.3-0.2-1.5-1-1.9-1.2c-0.5-0.3-1-0.5-1.3-0.6c-2.6-1-4.8-0.8-7.7,0.5
			c-2.3,1-3.5,1.4-4.5,1.4c-0.4,0-1.6-0.1-2.2-0.5c-0.2-0.1-0.6-0.3-0.8-0.4c-1.2-0.8-1.9-2.5-0.9-4.4c1.2-2.2,4.4-1.8,5.3-0.7
			c0.9,1.2,0.9,2.5-0.1,3.3c-1,0.7-2-0.4-1.4-1.4c0,0,0.1-0.1,0.1-0.3c0.1-0.1,0-0.3-0.3-0.3c-0.5,0-1.2,0.1-1.3,1.3
			c0,1.7,1.7,3,3.7,2.1c1.8-0.9,1-2.7,1-2.7s1.9-1.7,0.4-3.5c-1.9-2.1-4-0.8-4.8-0.5c0.1,0-1-1.8-3.7-0.7c-2.3,1.4-1.2,3.4-1.2,3.4
			s-1,0.5-1.4,2c-0.2,0.7,0.1,1.7,0.2,2c0.7,2,3,3.7,5.6,3.9c1.7,0.2,2.8-0.1,3.8-0.5c0.4-0.1,1.5-0.7,1.8-0.9
			c0.4-0.2,1.2-0.7,1.7-1c0.3-0.2,1.5-0.7,2-0.9c0.9-0.3,2.6-0.7,4.7-0.2c0.8,0.2,1.7,0.4,2.6,0.9c1.2,0.7,2,1.3,2.5,1.7
			c1.6,1.1,1.7,1.2,2.1,1.5C42.7,37,42.2,36.4,40.3,34.6z"/>
	</g>
	<g>
		<path class="st0" d="M51,4.4c-1.7,0-3,1.3-3,3c0,1.7,1.3,3,3,3c1.7,0,3-1.3,3-3C54,5.7,52.7,4.4,51,4.4z M51,10.1
			c-1.5,0-2.7-1.2-2.7-2.7c0-1.5,1.2-2.7,2.7-2.7c1.5,0,2.7,1.2,2.7,2.7C53.7,8.9,52.5,10.1,51,10.1z"/>
		<g>
			<path class="st0" d="M50.4,7.7v1.5h-0.5V5.6h1.3c0.4,0,0.7,0.1,1,0.3c0.2,0.2,0.3,0.5,0.3,0.8c0,0.3-0.1,0.6-0.4,0.7
				c-0.2,0.1-0.4,0.2-0.7,0.2l1.2,1.5h-0.6l-1.2-1.5H50.4z M51.7,7.2C51.9,7.1,52,6.9,52,6.7c0-0.3-0.1-0.5-0.2-0.6
				C51.6,6,51.3,5.9,51,5.9h-0.6v1.4H51C51.3,7.3,51.6,7.3,51.7,7.2z"/>
		</g>
	</g>
</g>
</svg>
