<?xml version="1.0" encoding="utf-8"?>
<!-- Generator: Adobe Illustrator 19.2.1, SVG Export Plug-In . SVG Version: 6.00 Build 0)  -->
<svg version="1.1" id="图层_1" xmlns="http://www.w3.org/2000/svg" xmlns:xlink="http://www.w3.org/1999/xlink" x="0px" y="0px"
	 viewBox="0 0 400 80" style="enable-background:new 0 0 400 80;" xml:space="preserve">
<style type="text/css">
	.st0{fill:#231815;}
	.st1{fill:#004097;}
	.st2{fill:#FFF000;}
	.st3{fill:#E50012;}
	.st4{fill:#009844;}
	.st5{fill:url(#SVGID_1_);}
</style>
<g>
	<g>
		<g>
			<path class="st0" d="M76.9,33.5v-1.3h17.1v1.3h-9.3c-1.1,2.5-2.6,4.7-4.5,6.5c2.2,0,4,0,5.4-0.1c1.4-0.1,2.9-0.2,4.5-0.4
				c-0.3-0.9-0.8-1.9-1.4-3h1.7c1.1,1.8,2,3.7,2.7,5.8h-2c-0.1-0.5-0.3-1-0.4-1.4c-3.8,0.4-7.5,0.6-11.2,0.6h-1.3V40
				c1.9-2.2,3.3-4.3,4.1-6.5H76.9z M78.5,28.2v-1.3h13.9v1.3H78.5z"/>
			<path class="st0" d="M104.7,31.6c-0.1-0.3-0.1-0.7-0.2-1c-1.3,0.2-3.7,0.4-7,0.4v-1.3c1.3-1.1,2.3-2.4,3.1-3.9h2.2
				c-1,1.7-2.1,3-3.3,3.9c1.8,0,3.3-0.1,4.6-0.2c-0.2-0.6-0.5-1.2-0.9-1.9h1.6c0.9,1.3,1.5,2.7,1.8,4H104.7z M98.2,42.8V32.4h7.4
				v8.3c0,1.4-0.7,2.1-2.3,2.1h-1.3v-1.3h0.9c0.7,0,1-0.2,1-0.8v-1.3H100v3.4H98.2z M100,33.6v1.8h3.8v-1.8H100z M100,36.5v1.8h3.8
				v-1.8H100z M109.3,33.4c-1.4,0-2.1-0.7-2.1-2.2v-5.4h1.8v2.9c1.8-0.4,2.9-1.1,3.5-2.2h1.8c-0.7,1.9-2.5,3.1-5.3,3.4v1.2
				c0,0.7,0.3,1,1,1h2c0.7,0,1-0.3,1-1v-0.5h1.4v0.8c0.1,1.4-0.6,2.1-2.2,2H109.3z M109.3,42.6c-1.4,0-2.1-0.6-2.1-2.1v-6.3h1.8v3.2
				c1.7-0.4,2.9-1.2,3.6-2.5h1.8c-0.8,2-2.6,3.2-5.4,3.6v1.8c-0.1,0.6,0.3,0.9,1.1,0.9h1.9c0.7,0,1-0.2,1-0.8v-0.6h1.4v0.8
				c0,1.3-0.7,2-2.2,1.9H109.3z"/>
			<path class="st0" d="M118.2,28v-1.3h3.6c1.1,0,2.2-0.1,3.1-0.4v1.4c-1,0.2-1.8,0.4-2.4,0.4v2.6h2.4v1.3h-2.4
				c0.5,1.7,1.3,3.3,2.3,4.8v1.8c-1-1.2-1.8-2.3-2.3-3.2v7.7h-1.9v-7.4c-0.5,1.3-1.5,2.8-2.9,4.4v-1.8c1.3-2,2.3-4.1,2.8-6.3H118
				v-1.3h2.7V28H118.2z M125.2,38.2v-1.3h5.7V25.8h1.9v11.1h2.4v1.3h-2.4v4.7h-1.9v-4.7H125.2z M129.7,34.9
				c-1.4-0.9-2.8-1.5-4.3-1.8v-1.3c1.7,0.2,3.2,0.6,4.3,1.3V34.9z M130,30.3c-1.3-0.7-2.7-1.2-4.2-1.5v-1.3c1.6,0.1,3,0.5,4.2,1.1
				V30.3z"/>
			<path class="st0" d="M138.6,29.9v-1.3h2v-2.8h1.9v2.8h1.7v1.3h-1.7v3.9c0.1,0,0.3-0.1,0.6-0.1c0.5-0.1,1-0.3,1.3-0.4v1.3
				c-0.2,0.1-0.4,0.1-0.7,0.3c-0.2,0.1-0.6,0.2-1.1,0.4v5.4c0,1.4-0.7,2.1-2.2,2h-1.5v-1.3h0.8c0.6,0,0.9-0.2,0.9-0.7v-4.8
				c-0.8,0.2-1.6,0.3-2.2,0.4v-1.6c0.9-0.1,1.7-0.2,2.2-0.3v-4.4H138.6z M145,29.2V28h4v-2.2h2V28h4.5v1.3H151v2.9h3.9v1.3
				c-0.8,2.5-2,4.5-3.6,6c1.2,0.9,2.7,1.7,4.4,2.3v1.3c-2.3-0.7-4.2-1.6-5.7-2.6c-1.5,0.9-3.5,1.8-5.9,2.6v-1.3
				c1.7-0.5,3.3-1.3,4.7-2.3c-1.3-1.2-2.5-2.9-3.3-5.1h2c0.7,1.6,1.6,3,2.6,4c1.2-1.2,2.2-2.8,2.9-4.8H145v-1.3h3.9v-2.9H145z"/>
		</g>
	</g>
	<g>
		<path class="st0" d="M90.1,59.5c-1.1,0-1.9-0.4-2.5-1.1c-0.5-0.6-0.7-1.6-0.7-2.9c0-1.5,0.3-2.5,1-3.2c0.5-0.6,1.3-0.8,2.2-0.8
			c0.8,0,1.4,0.2,1.9,0.5c0.5,0.4,0.7,0.9,0.7,1.5h-1.1c0-0.4-0.1-0.7-0.4-0.9c-0.3-0.2-0.7-0.4-1-0.4c-0.6,0-1,0.2-1.4,0.6
			c-0.4,0.4-0.6,1.3-0.6,2.7c0,1.2,0.1,2,0.4,2.4c0.4,0.5,0.9,0.7,1.5,0.7c0.4,0,0.8-0.1,1.1-0.4c0.3-0.3,0.4-0.6,0.4-1h1.1
			c0,0.6-0.2,1.1-0.7,1.5C91.6,59.3,90.9,59.5,90.1,59.5z"/>
		<path class="st0" d="M95.8,58.6h4.1v0.8h-5.3v-7.8h5.3v0.8h-4.1V55h2.9v0.8h-2.9V58.6z"/>
		<path class="st0" d="M105.1,59.5c-1.1,0-1.9-0.4-2.5-1.1c-0.5-0.6-0.7-1.6-0.7-2.9c0-1.5,0.3-2.5,1-3.2c0.5-0.6,1.3-0.8,2.2-0.8
			c0.8,0,1.4,0.2,1.9,0.5c0.5,0.4,0.7,0.9,0.7,1.5h-1.1c0-0.4-0.1-0.7-0.4-0.9c-0.3-0.2-0.7-0.4-1-0.4c-0.6,0-1,0.2-1.4,0.6
			c-0.4,0.4-0.6,1.3-0.6,2.7c0,1.2,0.1,2,0.4,2.4c0.4,0.5,0.9,0.7,1.5,0.7c0.4,0,0.8-0.1,1.1-0.4c0.3-0.3,0.4-0.6,0.4-1h1.1
			c0,0.6-0.2,1.1-0.7,1.5C106.5,59.3,105.9,59.5,105.1,59.5z"/>
		<path class="st0" d="M113.7,52.4v-0.8h6.5v0.8h-2.7v7h-1.1v-7H113.7z"/>
		<path class="st0" d="M122.9,58.6h4.1v0.8h-5.3v-7.8h5.3v0.8h-4.1V55h2.9v0.8h-2.9V58.6z"/>
		<path class="st0" d="M132.1,59.5c-1.1,0-1.9-0.4-2.5-1.1c-0.5-0.6-0.7-1.6-0.7-2.9c0-1.5,0.3-2.5,1-3.2c0.5-0.6,1.3-0.8,2.2-0.8
			c0.8,0,1.4,0.2,1.9,0.5c0.5,0.4,0.7,0.9,0.7,1.5h-1.1c0-0.4-0.1-0.7-0.4-0.9c-0.3-0.2-0.7-0.4-1-0.4c-0.6,0-1,0.2-1.4,0.6
			c-0.4,0.4-0.6,1.3-0.6,2.7c0,1.2,0.1,2,0.4,2.4c0.4,0.5,0.9,0.7,1.5,0.7c0.4,0,0.8-0.1,1.1-0.4c0.3-0.3,0.4-0.6,0.4-1h1.1
			c0,0.6-0.2,1.1-0.7,1.5C133.6,59.3,132.9,59.5,132.1,59.5z"/>
		<path class="st0" d="M140.9,51.6h1.1v7.8h-1.1v-3.6h-3.3v3.6h-1.1v-7.8h1.1V55h3.3V51.6z"/>
	</g>
	<g>
		<rect x="77.5" y="48" class="st0" width="77.7" height="0.7"/>
	</g>
	<g>
		<path class="st1" d="M22.8,18.1v45.7h45.1V18.1H22.8z M56.1,43.7c0,0-4.4-0.3-9.9,3.4c0,0,2.6-6.6,11.7-6.9
			C57.9,40.2,55.9,41.2,56.1,43.7z M45,41.7c0,0,4.1-7.1,11.4-10.3c0.3-0.2,0.5-0.2,0.5-0.2c-0.2,0.1-0.3,0.1-0.5,0.2
			c-0.6,0.4-1.6,1.7-1.9,5.6C54.5,37,51.2,37.2,45,41.7z M56.9,21.9c-2.2,1.7-3.6,6.1-3.6,6.1c-3.6,1.7-8.7,9-8.7,9
			C49.5,23.1,56.9,21.9,56.9,21.9z M61.2,55.4c-0.8-0.6-1.9-1.5-3.6-2.5c-1.2-0.7-2.5-1-3.6-1.3c-2.8-0.7-5.2-0.2-6.6,0.2
			c-0.7,0.2-2.4,1-2.8,1.3c-0.8,0.4-1.9,1-2.4,1.4c-0.5,0.3-2.1,1-2.6,1.2c-1.4,0.5-3,1-5.4,0.7c-3.6-0.2-7-2.7-7.9-5.4
			c-0.2-0.5-0.5-1.9-0.3-2.9c0.6-2.1,2-2.8,2-2.8s-1.5-2.9,1.7-4.8c3.8-1.6,5.3,1,5.2,1c1.2-0.5,4-2.4,6.7,0.6
			c2.1,2.5-0.5,4.9-0.5,4.9s1.1,2.6-1.4,3.8c-2.9,1.4-5.2-0.5-5.2-2.9c0-1.7,1.1-1.9,1.8-1.9c0.3,0,0.5,0.3,0.4,0.5
			c-0.1,0.2-0.2,0.4-0.2,0.4c-0.8,1.3,0.6,3,2,2c1.5-1.1,1.4-3,0.1-4.6c-1.2-1.6-5.8-2.2-7.4,0.9c-1.4,2.6-0.4,5,1.3,6.2
			c0.3,0.2,0.7,0.5,1.1,0.6c0.9,0.4,2.6,0.6,3.1,0.6c1.4,0,3.2-0.5,6.4-1.9c4.1-1.8,7.1-2,10.9-0.6c0.3,0.1,1.1,0.5,1.8,0.8
			c0.5,0.3,2.2,1.4,2.6,1.7c1,0.8,2,1.5,2.3,1.8c2.7,2.5,3.4,3.3,3.4,3.3C63.6,57.1,63.5,56.9,61.2,55.4z"/>
		<path class="st2" d="M53.3,28c0,0,1.4-4.5,3.6-6.1c0,0-7.4,1.2-12.4,15.2C44.5,37,49.7,29.7,53.3,28z"/>
		<path class="st3" d="M56.4,31.4C49.1,34.6,45,41.7,45,41.7c6.2-4.6,9.4-4.7,9.4-4.7C54.8,33.1,55.8,31.8,56.4,31.4z"/>
		<path class="st3" d="M56.4,31.4c0.2-0.1,0.3-0.1,0.5-0.2C56.9,31.2,56.7,31.2,56.4,31.4z"/>
		<path class="st4" d="M57.9,40.2c-9.2,0.3-11.7,6.9-11.7,6.9c5.4-3.7,9.9-3.4,9.9-3.4C55.9,41.2,57.9,40.2,57.9,40.2z"/>
		<path class="st1" d="M60.7,54.3c-0.3-0.3-1.2-1-2.3-1.8c-0.5-0.3-2.1-1.4-2.6-1.7C55,50.4,54.3,50,54,49.9
			c-3.7-1.4-6.8-1.2-10.9,0.6c-3.2,1.4-5,1.9-6.4,1.9c-0.5,0-2.2-0.2-3.1-0.6c-0.4-0.1-0.8-0.4-1.1-0.6c-1.7-1.1-2.7-3.5-1.3-6.2
			c1.7-3.1,6.2-2.6,7.4-0.9c1.2,1.7,1.3,3.6-0.1,4.6c-1.4,1-2.9-0.6-2-2c0,0,0.1-0.2,0.2-0.4c0.1-0.2,0-0.4-0.4-0.5
			c-0.7,0-1.7,0.2-1.8,1.9c0,2.4,2.3,4.3,5.2,2.9c2.5-1.2,1.4-3.8,1.4-3.8s2.6-2.4,0.5-4.9c-2.7-3-5.6-1.2-6.7-0.6
			c0.1,0-1.4-2.6-5.2-1c-3.2,1.9-1.7,4.8-1.7,4.8s-1.4,0.7-2,2.8c-0.3,1,0.1,2.4,0.3,2.9c0.9,2.7,4.3,5.2,7.9,5.4
			c2.4,0.3,4-0.2,5.4-0.7c0.5-0.2,2.1-0.9,2.6-1.2c0.5-0.3,1.7-1,2.4-1.4c0.4-0.2,2.1-1,2.8-1.3c1.3-0.4,3.7-0.9,6.6-0.2
			c1.1,0.3,2.4,0.6,3.6,1.3c1.6,1,2.8,1.9,3.6,2.5c2.3,1.5,2.4,1.7,2.9,2.2C64.1,57.5,63.4,56.8,60.7,54.3z"/>
		<linearGradient id="SVGID_1_" gradientUnits="userSpaceOnUse" x1="35.1191" y1="60.6896" x2="51.1917" y2="44.617">
			<stop  offset="0.1452" style="stop-color:#7DCCF3"/>
			<stop  offset="0.9409" style="stop-color:#F1F8FC"/>
		</linearGradient>
		<path class="st5" d="M60.7,54.3c-0.3-0.3-1.2-1-2.3-1.8c-0.5-0.3-2.1-1.4-2.6-1.7C55,50.4,54.3,50,54,49.9
			c-3.7-1.4-6.8-1.2-10.9,0.6c-3.2,1.4-5,1.9-6.4,1.9c-0.5,0-2.2-0.2-3.1-0.6c-0.4-0.1-0.8-0.4-1.1-0.6c-1.7-1.1-2.7-3.5-1.3-6.2
			c1.7-3.1,6.2-2.6,7.4-0.9c1.2,1.7,1.3,3.6-0.1,4.6c-1.4,1-2.9-0.6-2-2c0,0,0.1-0.2,0.2-0.4c0.1-0.2,0-0.4-0.4-0.5
			c-0.7,0-1.7,0.2-1.8,1.9c0,2.4,2.3,4.3,5.2,2.9c2.5-1.2,1.4-3.8,1.4-3.8s2.6-2.4,0.5-4.9c-2.7-3-5.6-1.2-6.7-0.6
			c0.1,0-1.4-2.6-5.2-1c-3.2,1.9-1.7,4.8-1.7,4.8s-1.4,0.7-2,2.8c-0.3,1,0.1,2.4,0.3,2.9c0.9,2.7,4.3,5.2,7.9,5.4
			c2.4,0.3,4-0.2,5.4-0.7c0.5-0.2,2.1-0.9,2.6-1.2c0.5-0.3,1.7-1,2.4-1.4c0.4-0.2,2.1-1,2.8-1.3c1.3-0.4,3.7-0.9,6.6-0.2
			c1.1,0.3,2.4,0.6,3.6,1.3c1.6,1,2.8,1.9,3.6,2.5c2.3,1.5,2.4,1.7,2.9,2.2C64.1,57.5,63.4,56.8,60.7,54.3z"/>
	</g>
	<g>
		<path class="st0" d="M75.8,11.7c-2.3,0-4.2,1.9-4.2,4.2c0,2.3,1.9,4.2,4.2,4.2c2.3,0,4.2-1.9,4.2-4.2C80,13.6,78.1,11.7,75.8,11.7
			z M75.8,19.7c-2.1,0-3.8-1.7-3.8-3.8c0-2.1,1.7-3.8,3.8-3.8c2.1,0,3.8,1.7,3.8,3.8C79.6,18,77.9,19.7,75.8,19.7z"/>
		<g>
			<path class="st0" d="M74.9,16.4v2h-0.7v-5.1H76c0.6,0,1,0.2,1.4,0.4c0.3,0.3,0.5,0.7,0.5,1.2c0,0.5-0.2,0.8-0.5,1
				c-0.3,0.2-0.6,0.3-0.9,0.3l1.7,2.1h-0.9l-1.7-2H74.9z M76.8,15.6c0.2-0.1,0.3-0.4,0.3-0.6c0-0.4-0.1-0.6-0.3-0.8
				c-0.2-0.2-0.6-0.3-1.1-0.3h-0.8v2h0.8C76.2,15.8,76.6,15.8,76.8,15.6z"/>
		</g>
	</g>
</g>
</svg>
