<?xml version="1.0" encoding="utf-8"?>
<!-- Generator: Adobe Illustrator 19.2.1, SVG Export Plug-In . SVG Version: 6.00 Build 0)  -->
<svg version="1.1" id="图层_1" xmlns="http://www.w3.org/2000/svg" xmlns:xlink="http://www.w3.org/1999/xlink" x="0px" y="0px"
	 viewBox="0 0 200 50" style="enable-background:new 0 0 200 50;" xml:space="preserve">
<style type="text/css">
	.st0{fill:#FFFFFF;}
</style>
<g>
	<path class="st0" d="M69.3,20.1l1.5-0.7l2,1.1l-1.6,0.7L69.3,20.1L69.3,20.1z M81.8,21.2l-1.6-0.7l2-1.1l1.5,0.7L81.8,21.2
		L81.8,21.2z M81.6,28.2H71.4v1h10.2V28.2L81.6,28.2z M71.4,26.8h10.2v-1.1H71.4V26.8L71.4,26.8z M77.9,21.8v-2.9h-2.7v2.9H77.9
		L77.9,21.8z M73.5,21.8v-2.9h-4v-1.4h3.2l-0.2-0.6l1.6-0.5l0.7,1.1h3.7l0.8-1.1l1.5,0.5l-0.3,0.6h3.2v1.4h-4.2v2.9h4.3v1.4H69.2
		v-1.4H73.5L73.5,21.8z M69.8,30.6v-6.3h13.5v6.3L69.8,30.6L69.8,30.6z M86.4,29.2l3.6-2.8l0.3,1.5l-3.6,2.8L86.4,29.2L86.4,29.2z
		 M87.8,16.6l2.5,2.6l-0.7,1.5l-2.5-2.6L87.8,16.6L87.8,16.6z M89.1,28.5l-1.7,0.3v-6.1h-1.1v-1.5h2.8L89.1,28.5L89.1,28.5z
		 M95.3,23.4v-5.1h-1.7v5.1h-2.2v1.5h2.2v5.8h1.7v-5.8h2.3v-1.5L95.3,23.4L95.3,23.4z M99.2,18.6L99,30.7h2.4V29h-0.7l0.3-11.9h-9.4
		v1.5H99.2L99.2,18.6z M105.4,19.5l-1.1-1.1l0.7-1.7l1.1,1.1L105.4,19.5L105.4,19.5z M116.7,21.7v-3.2h-2.5v3.2H116.7L116.7,21.7z
		 M116.4,29.2v-1h-10.1v1H116.4L116.4,29.2z M106.3,25.6v1.1h10.1v-1.1H106.3L106.3,25.6z M105.4,18.4v-1.3h6v1.3h-2.6v1.1h2.8v1.3
		h-2.8v0.5l3,1.3l-1.1,0.9l-2.6-1.2l-3,1.3l-0.9-0.9l3-1.3v-0.5h-2.9v-1.3h2.9v-1.1L105.4,18.4L105.4,18.4z M112.6,23.2v-6.1h5.9
		v6.1H112.6L112.6,23.2z M104.6,30.6v-6.5h13.5v6.5H104.6L104.6,30.6z M135.8,29.2v1.4h-5.7v-6.5h1.6v2.3l3.2-2.2l1.1,1l-4.3,3v1.1
		L135.8,29.2L135.8,29.2z M123.2,23.8h3.6v-1.2h-3.6V23.8L123.2,23.8z M123.2,26.5h3.6v-1.3h-3.6V26.5L123.2,26.5z M128,17.2l1,2.7
		h-7.8l1.7-3.2l1.6,0.3l-0.7,1.5h3l-0.3-0.9L128,17.2L128,17.2z M135.8,21.9v1.4h-5.7v-6.5h1.6v2.3l3.2-2.2l1.1,1l-4.3,3V22
		L135.8,21.9L135.8,21.9z M126.8,28h-3.6v2.6h-1.6v-9.4h6.9v9.4h-2.4v-1.5h0.7L126.8,28L126.8,28z M139.1,18.4l-0.3-1.3l6.7-0.2
		l0.3,1.2L139.1,18.4L139.1,18.4z M138.7,29.8l0.9-7.1l1.2,0.9l-0.9,7.1L138.7,29.8L138.7,29.8z M145.8,22h-1.9v2.7l1.8,1.5
		l-0.3,1.5l-1.5-1.1v4.1h-1.5V22h-3.6v-1.5h3.6v-2.7h1.5v2.7h1.9V22L145.8,22z M146.5,27.8l6.9-1.1l0.2,1.4l-6.9,1.1L146.5,27.8
		L146.5,27.8z M150.3,19.5l-0.8,1.3l-2-2.6l0.8-1.4L150.3,19.5L150.3,19.5z M150.1,24.7l-0.8,1.5l-2.6-3.3l0.7-1.4L150.1,24.7
		L150.1,24.7z M152.9,16.9v13.7h-1.6V16.9H152.9L152.9,16.9z M161.8,24.8l1.3-0.9l8.1,5.9l-1.2,0.9L161.8,24.8L161.8,24.8z
		 M161.5,22.6v-1.5h3.8v-2h-4.2v-1.5h4.2v-0.9h1.7v0.9h4.2v1.5H167v2h3.7V24l-8.4,6.6l-1.3-0.7l8-6.4v-0.9H161.5L161.5,22.6z
		 M155.9,25l4.2-1.4l0.3,1.5l-4.3,1.4L155.9,25L155.9,25z M156.1,30.6v-1.5h1.2v-8.7h-1.4V19h1.4v-2.2h1.6V19h1.2v1.5h-1.2v10.2
		h-2.8V30.6z"/>
	<path class="st0" d="M70.4,38.7V37h0.7c1,0,1.5-0.5,1.5-1.3c0-0.9-0.6-1.4-1.8-1.3h-1.3v4.4h0.9V38.7z M70.4,35.1
		c0.1,0,0.2,0,0.3,0c0.6-0.1,0.9,0.1,0.9,0.6s-0.3,0.7-0.9,0.6c-0.1,0-0.2,0-0.3,0V35.1L70.4,35.1z M76,34.4v2.4
		c0,0.5,0,0.9-0.2,1.1c-0.1,0.2-0.4,0.3-0.8,0.3c-0.4,0-0.6-0.1-0.8-0.3c-0.1-0.2-0.2-0.5-0.2-1.1v-2.4h-0.9v2.7
		c0,1.1,0.7,1.6,1.9,1.7c1.2,0,1.8-0.6,1.9-1.7v-2.7H76L76,34.4z M78.5,35.1h0.8c0.4,0,0.7,0.2,0.7,0.5c0,0.4-0.2,0.6-0.7,0.6h-0.8
		V35.1L78.5,35.1z M78.5,37h1c0.2,0,0.4,0.2,0.4,0.6c0,0.4,0.1,0.8,0.2,1.2h1c-0.1-0.2-0.2-0.5-0.2-1v-0.1c0-0.6-0.3-1-0.8-1l0,0
		c0.6-0.1,0.9-0.5,0.9-1.1c0-0.7-0.5-1.1-1.5-1.1h-1.9v4.4h0.9V37L78.5,37z M84.8,35.6c0-0.8-0.5-1.3-1.5-1.3
		c-1.2,0.1-1.8,0.5-1.8,1.4c0,0.6,0.5,1,1.4,1.2c0,0,0.1,0,0.2,0c0.5,0.1,0.8,0.3,0.8,0.6c0,0.4-0.3,0.5-0.9,0.6
		c-0.5,0-0.7-0.3-0.7-0.8h-0.9c0,1,0.5,1.4,1.7,1.4s1.8-0.5,1.9-1.4c0-0.6-0.5-1-1.5-1.2c-0.1,0-0.1,0-0.1,0
		c-0.6-0.1-0.8-0.3-0.8-0.6s0.3-0.5,0.7-0.6c0.5,0,0.7,0.2,0.7,0.7L84.8,35.6L84.8,35.6z M88.4,34.4v2.4c0,0.5,0,0.9-0.2,1.1
		c-0.1,0.2-0.4,0.3-0.8,0.3c-0.4,0-0.6-0.1-0.8-0.3c-0.1-0.2-0.2-0.5-0.2-1.1v-2.4h-0.9v2.7c0,1.1,0.7,1.6,1.9,1.7
		c1.2,0,1.8-0.6,1.9-1.7v-2.7H88.4L88.4,34.4z M90,38.7h3V38h-2v-1.2h1.8v-0.7H91v-1h2v-0.7h-2.9L90,38.7L90,38.7z M94.9,38.7h3V38
		h-2v-1.2h1.8v-0.7h-1.8v-1h2v-0.7H95v4.3H94.9z M101.4,38.7V38h-1.9v-3.6h-0.9v4.4h2.8V38.7z M105.7,38.7v-4.4h-0.9v3.4l0,0
		l-1.6-3.4h-1.4v4.4h0.9v-3.6l0,0l1.7,3.6H105.7L105.7,38.7z M106.1,35.1h1.3v3.6h0.9v-3.6h1.3v-0.7h-3.5L106.1,35.1L106.1,35.1z
		 M109.9,38.7h3V38h-2v-1.2h1.8v-0.7h-1.8v-1h2v-0.7H110v4.3H109.9z M116.4,38.7V38h-1.9v-3.6h-0.9v4.4h2.8V38.7z M119.6,38.7V38
		h-1.9v-3.6h-0.9v4.4h2.8V38.7z M121,34.4h-0.9v4.4h0.9V34.4L121,34.4z M125.6,38.7v-4.4h-0.9v3.4l0,0l-1.6-3.4h-1.4v4.4h0.9v-3.6
		l0,0l1.7,3.6H125.6L125.6,38.7z M129.2,37.1V38c0,0-0.1,0,0,0c-0.3,0.1-0.6,0.1-0.8,0.1c-0.8,0-1.2-0.5-1.2-1.6s0.4-1.6,1.2-1.6
		c0.6,0,0.9,0.2,0.9,0.7h1c0-0.9-0.7-1.4-2-1.4c-1.3,0.1-2,0.9-2,2.3c0,1.4,0.7,2.1,2,2.2c0.4,0,0.7,0,1,0s0.7,0,1-0.1v-2.2h-1.8
		v0.7L129.2,37.1L129.2,37.1z M130.8,38.7h3V38h-2.1v-1.2h1.8v-0.7h-1.8v-1h2v-0.7h-2.9V38.7L130.8,38.7z M138.3,38.7v-4.4h-0.8v3.4
		l0,0l-1.7-3.4h-1.4v4.4h0.9v-3.6l0,0l1.7,3.6H138.3L138.3,38.7z M142.5,35.8c-0.1-1-0.7-1.5-1.8-1.5c-1.2,0-1.8,0.8-1.8,2.3
		c0,1.4,0.6,2.2,1.8,2.2s1.8-0.5,1.8-1.5h-1c0,0.5-0.3,0.8-0.8,0.8s-0.8-0.6-0.8-1.6s0.3-1.6,0.8-1.6s0.8,0.3,0.8,0.8L142.5,35.8
		L142.5,35.8z M142.9,38.7h3V38h-2v-1.2h1.8v-0.7h-1.8v-1h2v-0.7H143v4.3H142.9z M151.1,35.6c0-0.8-0.5-1.3-1.5-1.3
		c-1.2,0.1-1.8,0.5-1.8,1.4c0,0.6,0.5,1,1.4,1.2c0,0,0.1,0,0.2,0c0.5,0.1,0.8,0.3,0.8,0.6c0,0.4-0.3,0.5-0.9,0.6
		c-0.5,0-0.7-0.3-0.7-0.8h-0.9c0,1,0.5,1.4,1.7,1.4s1.8-0.5,1.9-1.4c0-0.6-0.5-1-1.5-1.2c-0.1,0-0.1,0-0.1,0
		c-0.6-0.1-0.8-0.3-0.8-0.6s0.3-0.5,0.7-0.6c0.5,0,0.7,0.2,0.7,0.7L151.1,35.6L151.1,35.6z M155.2,35.8c-0.1-1-0.7-1.5-1.8-1.5
		c-1.2,0-1.8,0.8-1.8,2.3c0,1.4,0.6,2.2,1.8,2.2s1.8-0.5,1.8-1.5h-1c0,0.5-0.3,0.8-0.8,0.8s-0.8-0.6-0.8-1.6s0.3-1.6,0.8-1.6
		s0.8,0.3,0.8,0.8L155.2,35.8L155.2,35.8z M156.6,34.4h-0.9v4.4h0.9V34.4L156.6,34.4z M157.2,38.7h3V38h-2.1v-1.2h1.8v-0.7h-1.8v-1
		h2v-0.7h-2.9V38.7L157.2,38.7z M164.7,38.7v-4.4h-0.9v3.4l0,0l-1.7-3.4h-1.4v4.4h0.9v-3.6l0,0l1.7,3.6H164.7L164.7,38.7z
		 M168.9,35.8c-0.1-1-0.7-1.5-1.8-1.5c-1.2,0-1.8,0.8-1.8,2.3c0,1.4,0.6,2.2,1.8,2.2s1.8-0.5,1.8-1.5h-1c0,0.5-0.3,0.8-0.8,0.8
		s-0.8-0.6-0.8-1.6s0.3-1.6,0.8-1.6s0.8,0.3,0.8,0.8L168.9,35.8L168.9,35.8z M169.3,38.7h3V38h-2v-1.2h1.8v-0.7h-1.8v-1h2v-0.7h-2.9
		v4.3H169.3z"/>
	<g>
		<g>
			<path id="SVGID_1_" class="st0" d="M20.8,20.6c0,0-3.1-0.1-5.6,1.2c-2.5,1.3-5.6,4.7-5.6,8s0.8,10,9.5,11.7h5.5
				c1.8-0.4,3.6-1.7,3.6-5h-8.4c0,0-5.4-0.4-5.2-5.6s5.4-6.4,10-4.5L20.8,20.6L20.8,20.6z"/>
		</g>
		<g>
			<defs>
				<path id="SVGID_2_" d="M20.8,20.6c0,0-3.1-0.1-5.6,1.2c-2.5,1.3-5.6,4.7-5.6,8s0.8,10,9.5,11.7h5.5c1.8-0.4,3.6-1.7,3.6-5h-8.4
					c0,0-5.4-0.4-5.2-5.6s5.4-6.4,10-4.5L20.8,20.6L20.8,20.6z"/>
			</defs>
			<clipPath id="SVGID_3_">
				<use xlink:href="#SVGID_2_"  style="overflow:visible;"/>
			</clipPath>
		</g>
	</g>
	<g>
		<g>
			<path id="SVGID_5_" class="st0" d="M33.9,13.3c-5.5,0-9.9,4.5-9.9,10c0,1.1,0.2,2.2,0.5,3.2c-2.2,0-3.9-1.5-4.6-3.5
				c-0.3-0.7-0.4-1.7-0.4-2.6c1.3-6.8,7.3-11.9,14.4-11.9S47,13.6,48.3,20.4c0.2,1.2,0.1,1.2-0.4,2.6s-1.8,1.7-4.5,3.3l-0.1,0.1
				c0.3-1,0.5-2.1,0.5-3.2C43.8,17.7,39.4,13.3,33.9,13.3L33.9,13.3z"/>
		</g>
		<g>
			<defs>
				<path id="SVGID_4_" d="M33.9,13.3c-5.5,0-9.9,4.5-9.9,10c0,1.1,0.2,2.2,0.5,3.2c-2.2,0-3.9-1.5-4.6-3.5
					c-0.3-0.7-0.4-1.7-0.4-2.6c1.3-6.8,7.3-11.9,14.4-11.9S47,13.6,48.3,20.4c0.2,1.2,0.1,1.2-0.4,2.6s-1.8,1.7-4.5,3.3l-0.1,0.1
					c0.3-1,0.5-2.1,0.5-3.2C43.8,17.7,39.4,13.3,33.9,13.3L33.9,13.3z"/>
			</defs>
			<clipPath id="SVGID_6_">
				<use xlink:href="#SVGID_4_"  style="overflow:visible;"/>
			</clipPath>
		</g>
	</g>
	<g>
		<g>
			<path id="SVGID_9_" class="st0" d="M52.7,21.5c4.2,2.1,5.1,5,5.1,8.3s-0.8,10-9.5,11.7H31.5c3-0.6,3.5-2.4,3.5-5h12.7
				c0,0,5.4-0.4,5.2-5.6s-5-6.5-9.6-4.6C44.6,21.6,48.5,19.4,52.7,21.5L52.7,21.5z"/>
		</g>
		<g>
			<defs>
				<path id="SVGID_7_" d="M52.7,21.5c4.2,2.1,5.1,5,5.1,8.3s-0.8,10-9.5,11.7H31.5c3-0.6,3.5-2.4,3.5-5h12.7c0,0,5.4-0.4,5.2-5.6
					s-5-6.5-9.6-4.6C44.6,21.6,48.5,19.4,52.7,21.5L52.7,21.5z"/>
			</defs>
			<clipPath id="SVGID_8_">
				<use xlink:href="#SVGID_7_"  style="overflow:visible;"/>
			</clipPath>
		</g>
	</g>
	<g>
		<g>
			<path class="st0" d="M40,26.2c0.1-0.7,0.1-1.4,0-2l1.6-0.7l-1.1-2.6L39,21.6c-0.4-0.5-0.9-1-1.4-1.4l0.7-1.7l-2.6-1l-0.8,1.7
				c-0.7-0.1-1.4-0.1-2,0l-0.7-1.6l-2.6,1.1l0.7,1.6c-0.5,0.4-1,0.9-1.4,1.4L27.2,21l-1,2.6l1.7,0.7c-0.1,0.7-0.1,1.4,0,2L26.2,27
				l1.1,2.6l1.6-0.7c0.2,0.2,0.3,0.4,0.5,0.6v6.7c0,3.5-1.8,4.8-3.7,5.2c5.6,0.2,8.4-0.6,8.4-5.1v-4.9c0.3,0,0.6,0,0.9-0.1l0.7,1.6
				l2.6-1.1l-0.7-1.6c0.5-0.4,1-0.9,1.4-1.4l1.7,0.7l1-2.6L40,26.2z M36.5,26.3c-0.5,1.5-2.2,2.2-3.6,1.6c-1.5-0.5-2.2-2.2-1.6-3.6
				c0.5-1.5,2.2-2.2,3.6-1.6C36.5,23.3,37.2,24.9,36.5,26.3z"/>
		</g>
		<g>
			<defs>
				<path id="SVGID_10_" d="M34.9,19.2c-0.7-0.1-1.4-0.1-2,0l-0.7-1.6l-2.6,1.1l0.7,1.6c-0.5,0.4-1,0.9-1.4,1.4L27.2,21l-1,2.6
					l1.7,0.7c-0.1,0.7-0.1,1.4,0,2L26.3,27l1.1,2.6l1.6-0.7c0.2,0.2,0.3,0.4,0.5,0.6v6.7c0,3.5-1.8,4.8-3.7,5.2
					c5.6,0.2,8.4-0.6,8.4-5.1v-4.9c0.3,0,0.6,0,0.9-0.1l0.7,1.6l2.6-1.1l-0.7-1.6c0.5-0.4,1-0.9,1.4-1.4l1.7,0.7l1-2.6l-1.7-0.7
					c0.1-0.7,0.1-1.4,0-2l1.6-0.7l-1.1-2.6L39,21.6c-0.4-0.5-0.9-1-1.4-1.4l0.7-1.7l-2.6-1L34.9,19.2L34.9,19.2z M35,22.7
					c-1.4-0.6-3.1,0.1-3.6,1.6c-0.6,1.4,0.1,3.1,1.6,3.6c1.4,0.6,3.1-0.1,3.6-1.6C37.2,24.9,36.5,23.3,35,22.7L35,22.7z"/>
			</defs>
			<clipPath id="SVGID_11_">
				<use xlink:href="#SVGID_10_"  style="overflow:visible;"/>
			</clipPath>
		</g>
	</g>
</g>
</svg>
