<?xml version="1.0" encoding="utf-8"?>
<!-- Generator: Adobe Illustrator 19.2.1, SVG Export Plug-In . SVG Version: 6.00 Build 0)  -->
<svg version="1.1" id="图层_1" xmlns="http://www.w3.org/2000/svg" xmlns:xlink="http://www.w3.org/1999/xlink" x="0px" y="0px"
	 viewBox="0 0 400 80" style="enable-background:new 0 0 400 80;" xml:space="preserve">
<style type="text/css">
	.st0{fill:#008BD5;}
	.st1{fill:#C8CAD0;}
	.st2{fill:url(#SVGID_2_);}
	.st3{fill:url(#SVGID_3_);}
	.st4{fill:url(#SVGID_4_);}
	.st5{fill:url(#SVGID_6_);}
</style>
<g>
	<path class="st0" d="M110.3,29.6l2.5-1.2l3.3,1.8l-2.7,1.2L110.3,29.6L110.3,29.6z M131.2,31.5l-2.7-1.2l3.3-1.8l2.5,1.2
		L131.2,31.5L131.2,31.5z M130.8,43.2h-17v1.7h17V43.2L130.8,43.2z M113.8,40.8h17V39h-17V40.8L113.8,40.8z M124.6,32.5v-4.8h-4.5
		v4.8H124.6L124.6,32.5z M117.3,32.5v-4.8h-6.7v-2.3h5.3l-0.3-1l2.7-0.8l1.2,1.8h6.2l1.3-1.8l2.5,0.8l-0.5,1h5.3v2.3h-7v4.8h7.2v2.3
		h-24.4v-2.3H117.3L117.3,32.5z M111.1,47.2V36.6h22.6v10.5H111.1L111.1,47.2z M138.8,44.8l6-4.7l0.5,2.5l-6,4.7L138.8,44.8
		L138.8,44.8z M141.2,23.8l4.2,4.3l-1.2,2.5l-4.2-4.3L141.2,23.8L141.2,23.8z M143.4,43.7l-2.8,0.5V34h-1.8v-2.5h4.7L143.4,43.7
		L143.4,43.7z M153.7,35.1v-8.5h-2.8v8.5h-3.7v2.5h3.7v9.7h2.8v-9.7h3.8v-2.5H153.7L153.7,35.1z M160.2,27.1l-0.3,20.2h4v-2.8h-1.2
		l0.5-19.9h-15.7v2.5H160.2L160.2,27.1z M170.6,28.6l-1.8-1.8l1.2-2.8l1.8,1.8L170.6,28.6L170.6,28.6z M189.5,32.3V27h-4.2v5.3
		H189.5L189.5,32.3z M189,44.8v-1.7h-16.9v1.7H189L189,44.8z M172.1,38.8v1.8H189v-1.8H172.1L172.1,38.8z M170.6,26.8v-2.2h10v2.2
		h-4.3v1.8h4.7v2.2h-4.7v0.8l5,2.2l-1.8,1.5l-4.3-2l-5,2.2l-1.5-1.5l5-2.2V31h-4.8v-2.2h4.8V27L170.6,26.8L170.6,26.8z M182.6,34.8
		V24.6h9.9v10.2H182.6L182.6,34.8z M169.3,47.2V36.3h22.6v10.9H169.3L169.3,47.2z M221.4,44.8v2.3h-9.5V36.3h2.7v3.8l5.3-3.7
		l1.8,1.7l-7.2,5V45L221.4,44.8L221.4,44.8z M200.3,35.8h6v-2h-6V35.8L200.3,35.8z M200.3,40.3h6v-2.2h-6V40.3L200.3,40.3z
		 M208.4,24.8l1.7,4.5h-13l2.8-5.3l2.7,0.5l-1.2,2.5h5l-0.5-1.5L208.4,24.8L208.4,24.8z M221.4,32.6V35h-9.5V24.1h2.7V28l5.3-3.7
		l1.8,1.7l-7.2,5v1.8L221.4,32.6L221.4,32.6z M206.4,42.8h-6v4.3h-2.7V31.5h11.5v15.7h-4v-2.5h1.2V42.8L206.4,42.8z M226.9,26.8
		l-0.5-2.2l11.2-0.3l0.5,2L226.9,26.8L226.9,26.8z M226.2,45.8l1.5-11.9l2,1.5l-1.5,11.9L226.2,45.8L226.2,45.8z M238.1,32.8h-3.2
		v4.5l3,2.5l-0.5,2.5l-2.5-1.8v6.9h-2.5V32.8h-6v-2.5h6v-4.5h2.5v4.5h3.2V32.8L238.1,32.8z M239.3,42.5l11.5-1.8l0.3,2.3l-11.5,1.8
		L239.3,42.5L239.3,42.5z M245.6,28.6l-1.3,2.2l-3.3-4.3l1.3-2.3L245.6,28.6L245.6,28.6z M245.3,37.3l-1.3,2.5l-4.3-5.5l1.2-2.3
		L245.3,37.3L245.3,37.3z M250,24.3v22.9h-2.7V24.3H250L250,24.3z M264.9,37.5L267,36l13.5,9.9l-2,1.5L264.9,37.5L264.9,37.5z
		 M264.3,33.8v-2.5h6.4V28h-7v-2.5h7v-1.5h2.8v1.5h7V28h-7v3.3h6.2v4.8l-14,11l-2.2-1.2l13.4-10.7v-1.5H264.3L264.3,33.8z M255,37.8
		l7-2.3l0.5,2.5l-7.2,2.3L255,37.8L255,37.8z M255.3,47.2v-2.5h2V30.1H255v-2.3h2.3v-3.7h2.7v3.7h2v2.5h-2v17h-4.7V47.2z"/>
	<path class="st1" d="M112.1,60.7v-2.8h1.2c1.7,0,2.5-0.8,2.5-2.2c0-1.5-1-2.3-3-2.2h-2.2v7.4h1.5C112.1,60.9,112.1,60.7,112.1,60.7
		z M112.1,54.7c0.2,0,0.3,0,0.5,0c1-0.2,1.5,0.2,1.5,1s-0.5,1.2-1.5,1c-0.2,0-0.3,0-0.5,0V54.7L112.1,54.7z M121.5,53.5v4
		c0,0.8,0,1.5-0.3,1.8c-0.2,0.3-0.7,0.5-1.3,0.5s-1-0.2-1.3-0.5c-0.2-0.3-0.3-0.8-0.3-1.8v-4h-1.5V58c0,1.8,1.2,2.7,3.2,2.8
		c2,0,3-1,3.2-2.8v-4.5H121.5L121.5,53.5z M125.6,54.7h1.3c0.7,0,1.2,0.3,1.2,0.8c0,0.7-0.3,1-1.2,1h-1.3V54.7L125.6,54.7z
		 M125.6,57.9h1.7c0.3,0,0.7,0.3,0.7,1c0,0.7,0.2,1.3,0.3,2h1.7c-0.2-0.3-0.3-0.8-0.3-1.7V59c0-1-0.5-1.7-1.3-1.7l0,0
		c1-0.2,1.5-0.8,1.5-1.8c0-1.2-0.8-1.8-2.5-1.8h-3.2V61h1.5V57.9L125.6,57.9z M136.2,55.5c0-1.3-0.8-2.2-2.5-2.2c-2,0.2-3,0.8-3,2.3
		c0,1,0.8,1.7,2.3,2c0,0,0.2,0,0.3,0c0.8,0.2,1.3,0.5,1.3,1c0,0.7-0.5,0.8-1.5,1c-0.8,0-1.2-0.5-1.2-1.3h-1.5c0,1.7,0.8,2.3,2.8,2.3
		s3-0.8,3.2-2.3c0-1-0.8-1.7-2.5-2c-0.2,0-0.2,0-0.2,0c-1-0.2-1.3-0.5-1.3-1s0.5-0.8,1.2-1c0.8,0,1.2,0.3,1.2,1.2L136.2,55.5
		L136.2,55.5z M142.2,53.5v4c0,0.8,0,1.5-0.3,1.8c-0.2,0.3-0.7,0.5-1.3,0.5s-1-0.2-1.3-0.5c-0.2-0.3-0.3-0.8-0.3-1.8v-4h-1.5V58
		c0,1.8,1.2,2.7,3.2,2.8c2,0,3-1,3.2-2.8v-4.5H142.2L142.2,53.5z M144.9,60.7h5v-1.2h-3.3v-2h3v-1.2h-3v-1.7h3.3v-1.2H145
		L144.9,60.7L144.9,60.7z M153.1,60.7h5v-1.2h-3.3v-2h3v-1.2h-3v-1.7h3.3v-1.2h-4.8v7.2C153.2,60.7,153.1,60.7,153.1,60.7z
		 M163.9,60.7v-1.2h-3.2v-6h-1.5v7.4h4.7V60.7z M171.1,60.7v-7.4h-1.5V59l0,0l-2.7-5.7h-2.3v7.4h1.5v-6l0,0l2.8,6H171.1L171.1,60.7z
		 M171.8,54.7h2.2v6h1.5v-6h2.2v-1.2h-5.8L171.8,54.7L171.8,54.7z M178.1,60.7h5v-1.2h-3.3v-2h3v-1.2h-3v-1.7h3.3v-1.2h-4.8v7.2
		C178.3,60.7,178.1,60.7,178.1,60.7z M189,60.7v-1.2h-3.2v-6h-1.5v7.4h4.7V60.7z M194.3,60.7v-1.2h-3.2v-6h-1.5v7.4h4.7V60.7z
		 M196.7,53.5h-1.5v7.4h1.5V53.5L196.7,53.5z M204.4,60.7v-7.4h-1.5V59l0,0l-2.7-5.7h-2.3v7.4h1.5v-6l0,0l2.8,6H204.4L204.4,60.7z
		 M210.4,58v1.5c0,0-0.2,0,0,0c-0.5,0.2-1,0.2-1.3,0.2c-1.3,0-2-0.8-2-2.7s0.7-2.7,2-2.7c1,0,1.5,0.3,1.5,1.2h1.7
		c0-1.5-1.2-2.3-3.3-2.3c-2.2,0.2-3.3,1.5-3.3,3.8c0,2.3,1.2,3.5,3.3,3.7c0.7,0,1.2,0,1.7,0c0.5,0,1.2,0,1.7-0.2v-3.7h-3V58
		L210.4,58L210.4,58z M213,60.7h5v-1.2h-3.5v-2h3v-1.2h-3v-1.7h3.3v-1.2H213V60.7L213,60.7z M225.6,60.7v-7.4h-1.3V59l0,0l-2.8-5.7
		h-2.3v7.4h1.5v-6l0,0l2.8,6H225.6L225.6,60.7z M232.6,55.9c-0.2-1.7-1.2-2.5-3-2.5c-2,0-3,1.3-3,3.8c0,2.3,1,3.7,3,3.7s3-0.8,3-2.5
		h-1.7c0,0.8-0.5,1.3-1.3,1.3c-0.8,0-1.3-1-1.3-2.7c0-1.7,0.5-2.7,1.3-2.7c0.8,0,1.3,0.5,1.3,1.3L232.6,55.9L232.6,55.9z
		 M233.3,60.7h5v-1.2h-3.3v-2h3v-1.2h-3v-1.7h3.3v-1.2h-4.8v7.2C233.4,60.7,233.3,60.7,233.3,60.7z M247,55.5c0-1.3-0.8-2.2-2.5-2.2
		c-2,0.2-3,0.8-3,2.3c0,1,0.8,1.7,2.3,2c0,0,0.2,0,0.3,0c0.8,0.2,1.3,0.5,1.3,1c0,0.7-0.5,0.8-1.5,1c-0.8,0-1.2-0.5-1.2-1.3h-1.5
		c0,1.7,0.8,2.3,2.8,2.3s3-0.8,3.2-2.3c0-1-0.8-1.7-2.5-2c-0.2,0-0.2,0-0.2,0c-1-0.2-1.3-0.5-1.3-1s0.5-0.8,1.2-1
		c0.8,0,1.2,0.3,1.2,1.2L247,55.5L247,55.5z M253.8,55.9c-0.2-1.7-1.2-2.5-3-2.5c-2,0-3,1.3-3,3.8c0,2.3,1,3.7,3,3.7s3-0.8,3-2.5
		h-1.7c0,0.8-0.5,1.3-1.3,1.3s-1.3-1-1.3-2.7c0-1.7,0.5-2.7,1.3-2.7s1.3,0.5,1.3,1.3L253.8,55.9L253.8,55.9z M256.2,53.5h-1.5v7.4
		h1.5V53.5L256.2,53.5z M257.2,60.7h5v-1.2h-3.5v-2h3v-1.2h-3v-1.7h3.3v-1.2h-4.8V60.7L257.2,60.7z M269.7,60.7v-7.4h-1.5V59l0,0
		l-2.8-5.7H263v7.4h1.5v-6l0,0l2.8,6H269.7L269.7,60.7z M276.7,55.9c-0.2-1.7-1.2-2.5-3-2.5c-2,0-3,1.3-3,3.8c0,2.3,1,3.7,3,3.7
		c2,0,3-0.8,3-2.5H275c0,0.8-0.5,1.3-1.3,1.3s-1.3-1-1.3-2.7c0-1.7,0.5-2.7,1.3-2.7s1.3,0.5,1.3,1.3L276.7,55.9L276.7,55.9z
		 M277.4,60.7h5v-1.2h-3.3v-2h3v-1.2h-3v-1.7h3.3v-1.2h-4.8v7.2C277.6,60.7,277.4,60.7,277.4,60.7z"/>
	<g>
		<g>
			<linearGradient id="SVGID_2_" gradientUnits="userSpaceOnUse" x1="30.9268" y1="69.0946" x2="30.9268" y2="33.1902">
				<stop  offset="0" style="stop-color:#009FE8"/>
				<stop  offset="1" style="stop-color:#006AB7"/>
			</linearGradient>
			<path id="SVGID_1_" class="st2" d="M34.1,33.4c0,0-5.2-0.2-9.4,2s-9.4,7.9-9.4,13.4s1.3,16.7,15.9,19.6h9.2c3-0.7,6-2.8,6-8.4
				h-14c0,0-9-0.7-8.7-9.4s9-10.7,16.7-7.5L34.1,33.4L34.1,33.4z"/>
		</g>
	</g>
	<g>
		<g>
			<linearGradient id="SVGID_3_" gradientUnits="userSpaceOnUse" x1="56.0745" y1="37.0746" x2="56.0745" y2="10.3517">
				<stop  offset="0" style="stop-color:#009FE8"/>
				<stop  offset="1" style="stop-color:#006AB7"/>
			</linearGradient>
			<path id="SVGID_5_" class="st3" d="M56,21.2c-9.2,0-16.5,7.5-16.5,16.7c0,1.8,0.3,3.7,0.8,5.3c-3.7,0-6.5-2.5-7.7-5.8
				c-0.5-1.2-0.7-2.8-0.7-4.3C34.1,21.7,44.1,13.2,56,13.2s21.9,8.5,24.1,19.9c0.3,2,0.2,2-0.7,4.3c-0.8,2.3-3,2.8-7.5,5.5l-0.2,0.2
				c0.5-1.7,0.8-3.5,0.8-5.3C72.5,28.5,65.2,21.2,56,21.2L56,21.2z"/>
		</g>
	</g>
	<g>
		<g>
			<linearGradient id="SVGID_4_" gradientUnits="userSpaceOnUse" x1="73.9585" y1="67.154" x2="73.9585" y2="35.7351">
				<stop  offset="0" style="stop-color:#009FE8"/>
				<stop  offset="1" style="stop-color:#006AB7"/>
			</linearGradient>
			<path id="SVGID_9_" class="st4" d="M87.4,34.9c7,3.5,8.5,8.4,8.5,13.9s-1.3,16.7-15.9,19.6H52c5-1,5.8-4,5.8-8.4h21.2
				c0,0,9-0.7,8.7-9.4s-8.4-10.9-16-7.7C73.9,35.1,80.4,31.4,87.4,34.9L87.4,34.9z"/>
		</g>
	</g>
	<g>
		<g>
			<linearGradient id="SVGID_6_" gradientUnits="userSpaceOnUse" x1="55.6596" y1="67.6391" x2="55.6596" y2="29.043">
				<stop  offset="0" style="stop-color:#009FE8"/>
				<stop  offset="1" style="stop-color:#006AB7"/>
			</linearGradient>
			<path class="st5" d="M66.2,42.7c0.2-1.2,0.2-2.3,0-3.3l2.7-1.2L67,33.9l-2.5,1.2c-0.7-0.8-1.5-1.7-2.3-2.3l1.2-2.8L59,28.2
				l-1.3,2.8c-1.2-0.2-2.3-0.2-3.3,0l-1.2-2.7l-4.3,1.8l1.2,2.7c-0.8,0.7-1.7,1.5-2.3,2.3l-2.8-1.2l-1.7,4.3l2.8,1.2
				c-0.2,1.2-0.2,2.3,0,3.3l-2.8,1.2l1.8,4.3l2.7-1.2c0.3,0.3,0.5,0.7,0.8,1v11.2c0,5.8-3,8-6.2,8.7c9.4,0.3,14-1,14-8.5v-8.2
				c0.5,0,1,0,1.5-0.2l1.2,2.7l4.3-1.8l-1.2-2.7c0.8-0.7,1.7-1.5,2.3-2.3l2.8,1.2l1.7-4.3L66.2,42.7z M60.3,42.9
				c-0.8,2.5-3.7,3.7-6,2.7c-2.5-0.8-3.7-3.7-2.7-6c0.8-2.5,3.7-3.7,6-2.7C60.3,37.9,61.5,40.6,60.3,42.9z"/>
		</g>
	</g>
</g>
</svg>
