<?xml version="1.0" encoding="utf-8"?>
<!-- Generator: Adobe Illustrator 19.2.1, SVG Export Plug-In . SVG Version: 6.00 Build 0)  -->
<svg version="1.1" id="图层_1" xmlns="http://www.w3.org/2000/svg" xmlns:xlink="http://www.w3.org/1999/xlink" x="0px" y="0px"
	 viewBox="0 0 200 50" style="enable-background:new 0 0 200 50;" xml:space="preserve">
<style type="text/css">
	.st0{fill:#FFFFFF;}
	.st1{fill-rule:evenodd;clip-rule:evenodd;fill:#FFFFFF;}
</style>
<g>
	<path class="st0" d="M63.3,30H70v-9.5h-5.8v-2.4h14.5v2.4h-5.9V30h6.8v2.4H63.3V30z"/>
	<path class="st0" d="M85,17.1h2.4v13.1h2.1V17.1H92v9c0.9-1.8,1.8-3.9,2.7-6.2l2.1,0.9c-0.8,2.1-1.9,4.4-3,6.9L92,26.8v3.4h4.8v2.3
		H80.3v-2.3H85v-3.3l-1.9,0.8c-0.9-2.6-1.8-5-2.7-7.1l2-0.9c1,2.2,1.8,4.2,2.6,6.2V17.1z"/>
	<path class="st0" d="M99.2,33.3v-7.4c-0.2,0.1-0.4,0.2-0.6,0.2c-0.4-0.6-0.8-1.1-1.2-1.6c1.7-0.7,2.7-1.4,3.1-2.2h-3v-1.6h1
		c-0.3-0.5-0.7-1-1-1.4c0.6-0.6,1.2-1.4,1.8-2.6h2.1c-0.2,0.4-0.4,0.8-0.6,1.2h4.7v1.6h-2.3c0,0.4-0.1,0.8-0.1,1.1h3v1.6h-2.6
		l2.4,1.6l-1.1,1.2h7.1v8.1h-2.2v-0.7h-8.3v0.7H99.2z M98.9,20.7h2.1c0.1-0.3,0.1-0.7,0.1-1.1H100C99.6,20,99.3,20.4,98.9,20.7z
		 M100.5,25.2h3.8c-0.7-0.7-1.4-1.2-2-1.8C101.9,24.1,101.3,24.6,100.5,25.2z M109.7,26.9h-8.3v1.2h8.3V26.9z M101.4,30.8h8.3v-1.1
		h-8.3V30.8z M106.4,18h6.6v6.2h-6.6V18z M111,22.4v-2.7h-2.5v2.7H111z"/>
	<path class="st0" d="M121.2,18.2c0.8,1.1,1.6,2.3,2.5,3.6c-0.7,0.4-1.3,0.7-1.8,1l-0.5-0.8l-6.4,0.5l-0.6-1.9
		c0.7-0.4,1.8-1.7,3.3-3.9l2.1,0.8l-2.4,3l3-0.1c-0.3-0.4-0.5-0.9-0.8-1.3L121.2,18.2z M117.3,33.1h-2.1V23.1h7.1v7.8
		c0,0.7-0.1,1.2-0.4,1.5c-0.2,0.4-0.6,0.6-1.1,0.6c-0.5,0.1-1.3,0.1-2.4,0.1c-0.2-0.6-0.3-1.3-0.5-2c0.5,0,1,0,1.3,0
		c0.4,0,0.7-0.1,0.8-0.2c0.1-0.2,0.1-0.3,0.1-0.5V30h-3V33.1z M120.3,24.9h-3v1h3V24.9z M117.3,28.4h3v-1h-3V28.4z M128.8,20.6
		c0.8,0.4,1.5,0.7,2.1,0.9c-0.2,0.7-0.3,1.2-0.5,1.7c-0.2,0.5-0.4,0.9-0.8,1.1c-0.4,0.2-0.9,0.4-1.6,0.4h-1.7
		c-1.7,0-2.6-0.8-2.6-2.5v-5.2h2.1v2.5c1.4-0.6,2.5-1.2,3.5-1.7l1.5,1.7c-1.2,0.6-2.8,1.2-4.9,2v0.5c0,0.6,0.4,0.9,1.1,0.9h0.5
		c0.6,0,1-0.2,1-0.5C128.6,21.9,128.7,21.4,128.8,20.6z M128.9,28.5c0.7,0.3,1.4,0.5,2.1,0.8c-0.2,1.3-0.4,2.1-0.6,2.5
		c-0.2,0.4-0.5,0.7-0.9,0.8c-0.4,0.2-0.9,0.3-1.5,0.3h-1.8c-1.7,0-2.6-0.8-2.6-2.5v-5.3h2.1v2.1c1.2-0.6,2.4-1.2,3.4-1.9l1.5,1.7
		c-1.5,0.7-3.2,1.5-4.9,2.2v0.8c0,0.7,0.3,1,0.9,1h0.7c0.5,0,0.8-0.1,1-0.3C128.6,30.5,128.7,29.8,128.9,28.5z"/>
	<path class="st0" d="M134.1,32.2h-2v-6.5h3.4v-1.3h-4.1v-1.9h4.1V21h-1.8c-0.1,0.5-0.3,0.9-0.4,1.4c-0.5-0.2-1.1-0.4-1.7-0.7
		c0.5-1.3,0.8-2.8,1.1-4.3l1.8,0.4l-0.3,1.3h1.3v-2.3h2.2v2.3h3.3V21h-3.3v1.5h3.8v1.9h-3.8v1.3h3.4v4.5c0,0.6-0.1,1.1-0.4,1.5
		c-0.3,0.4-0.7,0.5-1.2,0.6c-0.6,0-1,0-1.2,0c-0.1-0.6-0.3-1.3-0.5-2.1c0.3,0,0.6,0,0.8,0c0.3,0,0.5-0.2,0.5-0.5v-2.1h-1.4v5.7h-2.2
		v-5.7h-1.4V32.2z M142.1,18.1h2v11.1h-2V18.1z M145.1,16.8h2.1v13.8c0,0.8-0.2,1.5-0.6,1.9s-0.9,0.6-1.6,0.7c-0.7,0-1.5,0-2.4,0
		c-0.1-0.7-0.2-1.4-0.4-2.3c0.9,0.1,1.6,0.1,2,0.1c0.6,0,0.9-0.3,0.9-1V16.8z"/>
	<path class="st0" d="M165,30.7l-0.7,2.1c-4.3,0-7.3,0-8.8-0.1c-1.6-0.1-2.9-0.6-3.9-1.5c-0.8,0.8-1.4,1.4-1.9,2l-1-2.5l1.7-1.5
		v-4.2h-1.6V23h3.7v6.5c0.9,0.9,2.2,1.4,4,1.4C160.2,30.8,163,30.8,165,30.7z M151,17.1c0.8,1.1,1.6,2.1,2.2,3.1l-2,1.3
		c-0.7-1.2-1.4-2.2-2.1-3.3L151,17.1z M153.2,22.1h5.1v-1.3H156c-0.2,0.5-0.4,0.9-0.6,1.3c-0.5-0.3-1.2-0.6-1.9-0.9
		c0.6-1.1,1.1-2.5,1.6-4.1l2,0.6c-0.1,0.4-0.3,0.8-0.4,1.2h1.6v-2.1h2.2v2.1h3.6v1.9h-3.6v1.3h4.2V24h-11.5V22.1z M154.5,24.8h9.2v5
		h-9.2V24.8z M161.6,26.6h-4.9V28h4.9V26.6z"/>
	<path class="st0" d="M165.9,22.9h16v2.3h-7.7c-0.8,1.2-2.1,2.8-3.9,4.7c2.3,0,4.6-0.1,6.8-0.2l-2.3-2.8l2-1.2
		c2.2,2.5,3.9,4.5,5.1,6.2l-2.2,1.4c-0.2-0.4-0.6-0.8-0.9-1.3c-6.5,0.2-10.3,0.4-11.3,0.7l-1.1-2.2c1.7-1.4,3.3-3.2,4.6-5.2h-5.1
		V22.9z M167.4,17.7h12.9V20h-12.9V17.7z"/>
</g>
<g>
	<g>
		<path class="st1" d="M43.5,26.4H21.3c-2.6,0-4.7,2.2-4.7,4.7s2.2,4.7,4.7,4.7h22.1c2.6,0,4.7-2.2,4.7-4.7S46,26.4,43.5,26.4
			L43.5,26.4z M43.5,32.5h-9.7c0.2-0.4,0.2-1,0.2-1.6s0-1-0.2-1.6h9.7c0.8,0,1.6,0.8,1.6,1.6C45,31.9,44.3,32.5,43.5,32.5L43.5,32.5
			z M27.7,23.2c0-2.6,2.2-4.7,4.7-4.7s4.7,2.2,4.7,4.7c0,0.6-0.2,1-0.4,1.6h5.1v-3.2h-1.8c-0.2-1-0.6-2-1.2-2.8l1.2-1.2l-2.2-2.2
			l-1.2,1.2c-0.8-0.6-1.8-1-2.8-1.2v-1.8h-3.2v1.8c-1,0.2-2,0.6-2.8,1.2l-1.2-1.2l-2.2,2.2l1.2,1.2c-0.6,0.8-1,1.8-1.2,2.8h-1.8v3.2
			h5.1C27.9,24.4,27.7,23.8,27.7,23.2L27.7,23.2z M30.8,23.2c0,0.8,0.8,1.6,1.6,1.6S34,24,34,23.2c0-0.8-0.8-1.6-1.6-1.6
			S30.8,22.4,30.8,23.2L30.8,23.2z"/>
	</g>
	<g>
		<path class="st0" d="M45,41.7H19.7c-5.8,0-10.5-4.7-10.5-10.5c0-5.1,3.6-9.3,8.5-10.3C18.9,13.7,25,8.3,32.4,8.3
			s13.5,5.3,14.7,12.5c4.9,1,8.5,5.3,8.5,10.3C55.6,36.9,50.8,41.7,45,41.7z M32.4,10.4c-6.6,0-12,4.9-12.8,11.4l-0.1,0.8l-0.8,0.1
			c-4.2,0.5-7.4,4.1-7.4,8.4c0,4.7,3.8,8.5,8.5,8.5H45c4.7,0,8.5-3.8,8.5-8.5c0-4.3-3.2-7.9-7.4-8.4l-0.8-0.1l-0.1-0.8
			C44.4,15.3,39,10.4,32.4,10.4z"/>
	</g>
</g>
</svg>
