<?xml version="1.0" encoding="utf-8"?>
<!-- Generator: Adobe Illustrator 19.2.1, SVG Export Plug-In . SVG Version: 6.00 Build 0)  -->
<svg version="1.1" id="图层_1" xmlns="http://www.w3.org/2000/svg" xmlns:xlink="http://www.w3.org/1999/xlink" x="0px" y="0px"
	 viewBox="0 0 132 54" style="enable-background:new 0 0 132 54;" xml:space="preserve">
<style type="text/css">
	.st0{fill:#00A0E9;}
	.st1{fill:url(#SVGID_1_);}
	.st2{fill:url(#SVGID_2_);}
	.st3{fill:url(#SVGID_3_);}
	.st4{fill:url(#SVGID_4_);}
	.st5{fill:url(#SVGID_5_);}
	.st6{fill:url(#SVGID_6_);}
	.st7{fill:url(#SVGID_7_);}
	.st8{fill:url(#SVGID_8_);}
	.st9{fill:url(#SVGID_9_);}
	.st10{fill:url(#SVGID_10_);}
	.st11{fill:#0CC683;}
</style>
<g>
	<g>
		<g>
			<path class="st0" d="M56.3,23.6c-0.2-2.4-0.8-4.6-1.5-6.8c-0.2-0.6-0.8-1.1-1.5-1.2l-4.5-0.7c-0.5-0.1-1-0.4-1.3-0.8
				c-0.8-1.2-1.7-2.3-2.7-3.3c-0.4-0.4-0.6-0.9-0.5-1.4l0.3-4.5c0-0.7-0.3-1.3-0.8-1.7c-1.9-1.3-4-2.3-6.3-3
				c-0.6-0.2-1.4-0.1-1.9,0.4l-3.3,3.1c-0.4,0.4-0.9,0.5-1.5,0.5C30.2,4,29.5,4,28.7,4c-0.7,0-1.4,0-2.1,0.1
				c-0.5,0.1-1.1-0.1-1.5-0.5l-3.3-3.1C21.3,0,20.6-0.1,20,0.1c-2.2,0.7-4.3,1.8-6.3,3c-0.6,0.4-0.9,1-0.8,1.7l0.3,4.5
				c0,0.5-0.2,1.1-0.5,1.4c-1,1-1.9,2.1-2.7,3.3c-0.3,0.4-0.8,0.8-1.3,0.8l-4.5,0.7c-0.7,0.1-1.2,0.6-1.5,1.2
				C2,19,1.4,21.3,1.2,23.6C1.1,24.3,1.4,25,2,25.4L5.7,28c0.4,0.3,0.7,0.8,0.8,1.3c0.2,1.4,0.5,2.8,0.9,4.1
				c0.2,0.5,0.1,1.1-0.1,1.5L5,38.8c-0.3,0.6-0.3,1.3,0,1.9c1.2,2,2.7,3.8,4.3,5.4c0.5,0.5,1.2,0.7,1.8,0.5l4.3-1.3
				c0.5-0.2,1.1-0.1,1.5,0.2c1.2,0.7,2.5,1.3,3.8,1.8c0.5,0.2,0.9,0.6,1.1,1.1l1.7,4.2c0.3,0.6,0.8,1.1,1.5,1.2
				c1.1,0.1,2.3,0.2,3.5,0.2s2.3-0.1,3.5-0.2c0.7-0.1,1.3-0.5,1.5-1.2l1.7-4.2c0.2-0.5,0.6-0.9,1.1-1.1c1.3-0.5,2.6-1.1,3.8-1.8
				c0.5-0.3,1-0.4,1.5-0.2l4.3,1.3c0.7,0.2,1.4,0,1.8-0.5c1.7-1.6,3.1-3.4,4.3-5.4c0.4-0.6,0.4-1.3,0-1.9L50.8,36
				c-0.3,0.5-0.6,1-1,1.5c-3.9,4.5-11.3,7.3-18,7.3c-11.7,0-21.1-7.2-21.1-19.9l0,0c0-4.6,2.2-9.2,5.8-9.2c0-5.4,5.8-8.9,12-8.9
				s12,3.5,12,8.9c3.7,0,5.8,4.1,5.8,7.9c0,4.7-3.8,11.5-12.9,11.5C26,35.1,22.1,30,22,26.6c-0.2-5.3,3.1-8.9,7.8-8.7
				c1.5,0.1,3.4,1.3,3.5,3.5c0.1,1.9-1.6,4-5,4.5c-0.6,0.1-1.7,0.4-1.7,1.6c0,0.6,0.3,1.3,1.8,1.4c3.5,0.1,9.3-1.9,9.2-7.7
				c-0.1-2.9-2.3-7.3-8.4-7.3c-5.5,0-11.7,4.6-11.8,11.9c0,4.6,1.8,8.2,5,10.8c2.4,2,6.6,3.7,11.5,3.6c5.1-0.1,10.5-1.2,15.7-6.8
				c0.3-0.3,0.7-1.3,1.1-3.2c0.1-0.3,0.1-0.6,0.1-1c0.1-0.5,0.4-1,0.8-1.3l3.7-2.6C56,25,56.3,24.3,56.3,23.6z"/>
		</g>
		<g>
			
				<linearGradient id="SVGID_1_" gradientUnits="userSpaceOnUse" x1="6.5479" y1="59.6384" x2="34.6801" y2="19.1604" gradientTransform="matrix(1 0 0 -1 0 54)">
				<stop  offset="0.3724" style="stop-color:#FFFFFF;stop-opacity:0"/>
				<stop  offset="1" style="stop-color:#FFFFFF;stop-opacity:0.2"/>
			</linearGradient>
			<path class="st1" d="M37.7,21.1c-0.1-2.9-2.3-7.3-8.4-7.3c-5.5,0-11.7,4.6-11.8,11.9c0,3.9,1.3,6.9,3.5,9.4
				c1.1-1.2,2.3-2.3,3.6-3.4c-1.7-1.6-2.5-3.6-2.6-5.2c-0.2-5.3,3.1-8.9,7.8-8.7c1.5,0.1,3.4,1.3,3.5,3.5c0.1,1.9-1.6,4-5,4.5
				c-0.6,0.1-1.7,0.4-1.7,1.6c0,0.6,0.3,1.3,1.8,1.4l0,0c2.6-1.8,5.5-3.3,8.5-4.5C37.5,23.4,37.7,22.4,37.7,21.1z"/>
			
				<linearGradient id="SVGID_2_" gradientUnits="userSpaceOnUse" x1="6.0919" y1="59.3214" x2="34.2241" y2="18.8434" gradientTransform="matrix(1 0 0 -1 0 54)">
				<stop  offset="0.3724" style="stop-color:#FFFFFF;stop-opacity:0"/>
				<stop  offset="1" style="stop-color:#FFFFFF;stop-opacity:0.2"/>
			</linearGradient>
			<path class="st2" d="M10.6,24.9L10.6,24.9c0-4.6,2.2-9.2,5.8-9.2c0-5.4,5.8-8.9,12-8.9s12,3.5,12,8.9c3.1,0,5.1,2.9,5.7,6.1
				c2.7-0.5,5.5-0.7,8.4-0.7c0.4,0,0.9,0,1.3,0c-0.3-1.4-0.7-2.8-1.2-4.2c-0.2-0.6-0.8-1.1-1.5-1.2L48.6,15c-0.5-0.1-1-0.4-1.3-0.8
				c-0.8-1.2-1.7-2.3-2.7-3.3c-0.4-0.4-0.6-0.9-0.5-1.4L44.4,5c0-0.7-0.3-1.3-0.8-1.7c-1.9-1.3-4-2.3-6.3-3
				c-0.6-0.2-1.4-0.1-1.9,0.4l-3.3,3.1c-0.4,0.4-0.9,0.5-1.5,0.5C30.2,4,29.5,4,28.7,4c-0.7,0-1.4,0-2.1,0.1
				c-0.5,0.1-1.1-0.1-1.5-0.5l-3.3-3.1C21.3,0,20.6-0.1,20,0.1c-2.2,0.7-4.3,1.8-6.3,3c-0.6,0.4-0.9,1-0.8,1.7l0.3,4.5
				c0,0.5-0.2,1.1-0.5,1.4c-1,1-1.9,2.1-2.7,3.3c-0.3,0.4-0.8,0.8-1.3,0.8l-4.5,0.7c-0.7,0.1-1.2,0.6-1.5,1.2
				C2,19,1.4,21.3,1.2,23.6C1.1,24.3,1.4,25,2,25.4L5.7,28c0.4,0.3,0.7,0.8,0.8,1.3c0.2,1.4,0.5,2.8,0.9,4.1
				c0.2,0.5,0.1,1.1-0.1,1.5L5,38.8c-0.3,0.6-0.3,1.3,0,1.9c1.2,2,2.7,3.8,4.3,5.4c0.5,0.5,1.2,0.7,1.8,0.5l2.3-0.7
				c1-2.1,2.2-4.1,3.5-6C13.1,36.5,10.6,31.4,10.6,24.9z"/>
		</g>
	</g>
	<g>
		<g>
			<g>
				<path class="st0" d="M95.1,17.7h-3.7l1-5.4h-4l-1,5.4h-2.3v-7h9.1V7.5h-3.8L92,5.7h-6.3l-1.6,1.8h-12l-1.6-1.8h-6.3l1.6,1.8
					h-3.9v3.2h9.2v7h-2.3l-1-5.4h-4l1,5.4h-3.7v3.2H95v-3.2H95.1z M79.8,17.7h-3.2v-7h3.2V17.7z"/>
				<rect x="118.4" y="23.3" class="st0" width="3.7" height="3.5"/>
				<rect x="105.6" y="23.3" class="st0" width="3.7" height="3.5"/>
				<rect x="105.6" y="12.7" class="st0" width="3.7" height="3.5"/>
				<rect x="118.4" y="12.7" class="st0" width="3.7" height="3.5"/>
				<polygon class="st0" points="122.8,18.1 116.6,18.1 116.6,12.3 111.1,12.3 111.1,18.1 104.9,18.1 104.9,21.3 111.1,21.3 
					111.1,27.2 116.6,27.2 116.6,21.3 122.8,21.3 				"/>
				<g>
					<polygon class="st0" points="103.7,10.7 124,10.7 124,27.6 129.4,27.6 129.4,12 124.9,7.5 109.6,7.5 111.2,5.7 104.9,5.7 
						103.3,7.5 98.3,7.5 98.3,27.6 103.7,27.6 					"/>
					<polygon class="st0" points="130.8,29.2 116.6,29.2 116.6,28.4 111.1,28.4 111.1,29.2 96.9,29.2 96.9,32.4 107.8,32.4 
						102.7,35.3 94,35.3 94,23.1 62.3,23.1 62.3,33.9 66.8,38.5 85.6,38.5 85.6,29.2 70.7,29.2 70.7,32.4 80.2,32.4 80.2,35.3 
						67.7,35.3 67.7,26.3 88.6,26.3 88.6,38.5 106.1,38.5 113.9,34.1 121.6,38.5 130.7,38.5 130.8,38.5 130.8,35.3 125,35.3 
						119.9,32.4 130.8,32.4 					"/>
				</g>
			</g>
			<g>
				<g>
					
						<linearGradient id="SVGID_3_" gradientUnits="userSpaceOnUse" x1="56.5672" y1="43.7808" x2="64.414" y2="29.2597" gradientTransform="matrix(1 0 0 -1 0 54)">
						<stop  offset="0.3724" style="stop-color:#FFFFFF;stop-opacity:0"/>
						<stop  offset="1" style="stop-color:#FFFFFF;stop-opacity:0.2"/>
					</linearGradient>
					<path class="st3" d="M68.8,23.1h-6.6v7.3C64.1,27.7,66.3,25.2,68.8,23.1z"/>
					
						<linearGradient id="SVGID_4_" gradientUnits="userSpaceOnUse" x1="71.2202" y1="51.6988" x2="79.067" y2="37.1777" gradientTransform="matrix(1 0 0 -1 0 54)">
						<stop  offset="0.3724" style="stop-color:#FFFFFF;stop-opacity:0"/>
						<stop  offset="1" style="stop-color:#FFFFFF;stop-opacity:0.2"/>
					</linearGradient>
					<path class="st4" d="M76.5,17.7v-7h3.2V17c1.8-0.6,3.6-1,5.4-1.3v-5h9.1V7.5h-3.8L92,5.7h-6.3l-1.6,1.8h-12l-1.6-1.8h-6.3
						l1.6,1.8h-3.9v3.2h9.2v7h-2.3l-1-5.4h-4l1,5.4h-3.7v3.2h10.6c1.9-1.3,3.9-2.3,6.1-3.2H76.5z"/>
					
						<linearGradient id="SVGID_5_" gradientUnits="userSpaceOnUse" x1="81.1042" y1="57.0399" x2="88.951" y2="42.5188" gradientTransform="matrix(1 0 0 -1 0 54)">
						<stop  offset="0.3724" style="stop-color:#FFFFFF;stop-opacity:0"/>
						<stop  offset="1" style="stop-color:#FFFFFF;stop-opacity:0.2"/>
					</linearGradient>
					<path class="st5" d="M91.9,15.2l0.5-3h-4l-0.5,3c0.9-0.1,1.8-0.1,2.7-0.1C91,15.2,91.5,15.2,91.9,15.2z"/>
				</g>
			</g>
			<g>
				
					<linearGradient id="SVGID_6_" gradientUnits="userSpaceOnUse" x1="100.895" y1="48.9958" x2="110.5757" y2="35.0459" gradientTransform="matrix(1 0 0 -1 0 54)">
					<stop  offset="0.3724" style="stop-color:#FFFFFF;stop-opacity:0"/>
					<stop  offset="1" style="stop-color:#FFFFFF;stop-opacity:0.2"/>
				</linearGradient>
				<rect x="105.6" y="12.7" class="st6" width="3.7" height="3.5"/>
				
					<linearGradient id="SVGID_7_" gradientUnits="userSpaceOnUse" x1="109.5344" y1="54.9913" x2="119.2151" y2="41.0414" gradientTransform="matrix(1 0 0 -1 0 54)">
					<stop  offset="0.3724" style="stop-color:#FFFFFF;stop-opacity:0"/>
					<stop  offset="1" style="stop-color:#FFFFFF;stop-opacity:0.2"/>
				</linearGradient>
				<path class="st7" d="M118.4,12.7v3.5h0.1c1.2-0.3,2.4-0.5,3.6-0.7v-2.8C122.1,12.7,118.4,12.7,118.4,12.7z"/>
				
					<linearGradient id="SVGID_8_" gradientUnits="userSpaceOnUse" x1="101.9981" y1="49.7613" x2="111.6788" y2="35.8115" gradientTransform="matrix(1 0 0 -1 0 54)">
					<stop  offset="0.3724" style="stop-color:#FFFFFF;stop-opacity:0"/>
					<stop  offset="1" style="stop-color:#FFFFFF;stop-opacity:0.2"/>
				</linearGradient>
				<path class="st8" d="M111.1,12.3v5.9h-6.2v3.2h2.1c2.9-2,6.1-3.6,9.6-4.7v-4.4C116.6,12.3,111.1,12.3,111.1,12.3z"/>
				
					<linearGradient id="SVGID_9_" gradientUnits="userSpaceOnUse" x1="102.7087" y1="50.2545" x2="112.3894" y2="36.3047" gradientTransform="matrix(1 0 0 -1 0 54)">
					<stop  offset="0.3724" style="stop-color:#FFFFFF;stop-opacity:0"/>
					<stop  offset="1" style="stop-color:#FFFFFF;stop-opacity:0.2"/>
				</linearGradient>
				<path class="st9" d="M103.7,23.9V10.7H124v4.6c0.8-0.1,1.7-0.1,2.5-0.1c1,0,2,0,2.9,0.1V12l-4.5-4.5h-15.3l1.6-1.8h-6.3
					l-1.6,1.8h-5v20.1h1.9C101.3,26.3,102.5,25.1,103.7,23.9z"/>
				
					<linearGradient id="SVGID_10_" gradientUnits="userSpaceOnUse" x1="86.8247" y1="39.2315" x2="96.5054" y2="25.2817" gradientTransform="matrix(1 0 0 -1 0 54)">
					<stop  offset="0.3724" style="stop-color:#FFFFFF;stop-opacity:0"/>
					<stop  offset="1" style="stop-color:#FFFFFF;stop-opacity:0.2"/>
				</linearGradient>
				<path class="st10" d="M96.9,29.2v3.2l0,0c0.6-1.1,1.3-2.2,2.1-3.2H96.9z"/>
			</g>
		</g>
		<g>
			<path class="st11" d="M79.7,42.6h-5c-0.3,0-0.5,0.1-0.7,0.3l-0.6,0.6C73.1,43.7,73,44,73,44.3v3.6c0,0.2,0.2,0.3,0.3,0.3h5
				c0.3,0,0.5-0.1,0.7-0.3l0.6-0.6c0.2-0.2,0.3-0.5,0.3-0.7V43C80,42.8,79.9,42.6,79.7,42.6z M75.1,47.2v-3.5c0-0.2,0.2-0.3,0.3-0.3
				h2.1c0.2,0,0.3,0.2,0.3,0.3v3.5c0,0.2-0.2,0.3-0.3,0.3h-2.1C75.3,47.6,75.1,47.4,75.1,47.2z"/>
			<path class="st11" d="M68.8,44.3v3.6c0,0.2,0.2,0.3,0.3,0.3h1.4c0.2,0,0.3-0.2,0.3-0.3v-4.2c0-0.2,0.2-0.3,0.3-0.3H72
				c0.2,0,0.3-0.2,0.3-0.3l0,0c0-0.2-0.2-0.3-0.3-0.3h-1.7c-0.3,0-0.5,0.1-0.7,0.3L69,43.7C68.9,43.7,68.8,44,68.8,44.3z"/>
			<path class="st11" d="M122.7,44.3v3.6c0,0.2,0.2,0.3,0.3,0.3h1.4c0.2,0,0.3-0.2,0.3-0.3v-4.2c0-0.2,0.2-0.3,0.3-0.3h0.9
				c0.2,0,0.3-0.2,0.3-0.3l0,0c0-0.2-0.2-0.3-0.3-0.3h-1.7c-0.3,0-0.5,0.1-0.7,0.3l-0.6,0.6C122.8,43.7,122.7,44,122.7,44.3z"/>
			<path class="st11" d="M85.4,47.6h-2.1c-0.2,0-0.3-0.2-0.3-0.3V43c0-0.2-0.2-0.3-0.3-0.3h-1.4c-0.2,0-0.3,0.2-0.3,0.3v3.6
				c0,0.3,0.1,0.5,0.3,0.7l0.6,0.6c0.2,0.2,0.5,0.3,0.7,0.3h5c0.2,0,0.3-0.2,0.3-0.3V43c0-0.2-0.2-0.3-0.3-0.3h-1.4
				c-0.2,0-0.3,0.2-0.3,0.3v4.2C85.8,47.4,85.6,47.6,85.4,47.6z"/>
			<path class="st11" d="M112,42.6h-7.1c-0.2,0-0.3,0.2-0.3,0.3v4.9c0,0.2,0.2,0.3,0.3,0.3h1.4c0.2,0,0.3-0.2,0.3-0.3v-4.2
				c0-0.2,0.2-0.3,0.3-0.3h1c0.2,0,0.3,0.2,0.3,0.3c0,1.4,0,3.4,0,4.2c0,0.2,0.2,0.3,0.3,0.3h1.4c0.2,0,0.3-0.2,0.3-0.3v-4.2
				c0-0.2,0.2-0.3,0.3-0.3h0.9c0.2,0,0.3,0.2,0.3,0.3v4.2c0,0.2,0.2,0.3,0.3,0.3h1.4c0.2,0,0.3-0.2,0.3-0.3v-3.6
				c0-0.3-0.1-0.5-0.3-0.7l-0.6-0.6C112.6,42.7,112.3,42.6,112,42.6z"/>
			<path class="st11" d="M93.3,47.6h-2.1c-0.2,0-0.3-0.2-0.3-0.3v-3.5c0-0.2,0.2-0.3,0.3-0.3h1.6c0.2,0,0.3-0.2,0.3-0.3l0,0
				c0-0.2-0.2-0.3-0.3-0.3h-3.7c-0.2,0-0.3,0.2-0.3,0.3v3.6c0,0.3,0.1,0.5,0.3,0.7l0.6,0.6c0.2,0.2,0.5,0.3,0.7,0.3h5
				c0.2,0,0.3-0.2,0.3-0.3v-6.6c0-0.2-0.2-0.3-0.3-0.3H94c-0.2,0-0.3,0.2-0.3,0.3v5.9C93.7,47.4,93.5,47.6,93.3,47.6z"/>
			<path class="st11" d="M103.4,45.1h-4.2c-0.2,0-0.3-0.2-0.3-0.3v-1.1c0-0.2,0.2-0.3,0.3-0.3h3.5c0.2,0,0.3-0.2,0.3-0.3l0,0
				c0-0.2-0.2-0.3-0.3-0.3h-4.3c-0.3,0-0.5,0.1-0.7,0.3L97,43.5c-0.2,0.2-0.3,0.5-0.3,0.7v1.2c0,0.2,0.2,0.3,0.3,0.3h4.2
				c0.2,0,0.3,0.2,0.3,0.3v1c0,0.2-0.2,0.3-0.3,0.3h-3.9c-0.2,0-0.3,0.2-0.3,0.3l0,0c0,0.2,0.2,0.3,0.3,0.3h4.7
				c0.3,0,0.5-0.1,0.7-0.3l0.6-0.6c0.2-0.2,0.3-0.5,0.3-0.7v-1.1C103.7,45.3,103.6,45.1,103.4,45.1z"/>
			<path class="st11" d="M67.9,41h-6.3c-0.2,0-0.3,0.2-0.3,0.3v6.6c0,0.2,0.2,0.3,0.3,0.3H63c0.2,0,0.3-0.2,0.3-0.3V42
				c0-0.2,0.2-0.3,0.3-0.3h2.1c0.2,0,0.3,0.2,0.3,0.3v2.3c0,0.2-0.2,0.3-0.3,0.3h-1.6c-0.2,0-0.3,0.2-0.3,0.3l0,0
				c0,0.2,0.2,0.3,0.3,0.3h2.5c0.3,0,0.5-0.1,0.7-0.3l0.5-0.5c0.2-0.2,0.3-0.5,0.3-0.7v-2.6C68.2,41.2,68.1,41,67.9,41z"/>
			<path class="st11" d="M116.6,43.3h2.8c0.2,0,0.3,0.2,0.3,0.3v3.5c0,0.2-0.2,0.3-0.3,0.3h-2.1c-0.2,0-0.3-0.2-0.3-0.3v-1.7
				c0-0.2,0.2-0.3,0.3-0.3h1.6c0.2,0,0.3-0.2,0.3-0.3l0,0c0-0.2-0.2-0.3-0.3-0.3h-3.7c-0.2,0-0.3,0.2-0.3,0.3v1.8
				c0,0.3,0.1,0.5,0.3,0.7l0.6,0.6c0.2,0.2,0.5,0.3,0.7,0.3h5c0.2,0,0.3-0.2,0.3-0.3V43c0-0.2-0.2-0.3-0.3-0.3h-4.9
				c-0.2,0-0.3,0.2-0.3,0.3l0,0C116.2,43.2,116.4,43.3,116.6,43.3z"/>
			<path class="st11" d="M130.8,43L130.8,43c0-0.2-0.2-0.4-0.3-0.4h-1c-0.2,0-0.3-0.2-0.3-0.3v-0.9c0-0.2-0.2-0.3-0.3-0.3h-1.4
				c-0.2,0-0.3,0.2-0.3,0.3v5.3c0,0.3,0.1,0.5,0.3,0.7l0.6,0.6c0.2,0.2,0.5,0.3,0.7,0.3h1.7c0.2,0,0.3-0.2,0.3-0.3l0,0
				c0-0.2-0.2-0.3-0.3-0.3h-0.9c-0.2,0-0.3-0.2-0.3-0.3v-3.5c0-0.2,0.2-0.3,0.3-0.3h1C130.8,43.5,130.8,43.2,130.8,43z"/>
		</g>
	</g>
</g>
</svg>
