<svg id="图层_1" data-name="图层 1" xmlns="http://www.w3.org/2000/svg" viewBox="0 0 19.75 24"><defs><style>.cls-1{fill:#1aa0e6;}</style></defs><title>iconfont-mima</title><path class="cls-1" d="M20,8.2H17.87a6,6,0,1,0-11.94,0H3.79A8.43,8.43,0,0,1,11.9,0,8.43,8.43,0,0,1,20,8.2h0Zm0,0" transform="translate(-2.12)"/><path class="cls-1" d="M21.88,11.71a2.14,2.14,0,0,0-2.14-2.14H4.26a2.14,2.14,0,0,0-2.14,2.14V21.86A2.14,2.14,0,0,0,4.26,24H19.74a2.14,2.14,0,0,0,2.14-2.14V11.71h0Zm-8.16,7.94a1.6,1.6,0,0,1-1.6,1.6H11.89a1.6,1.6,0,0,1-1.6-1.6V15.3a1.6,1.6,0,0,1,1.6-1.6h0.23a1.6,1.6,0,0,1,1.6,1.6v4.35h0Zm0,0" transform="translate(-2.12)"/></svg>